# This file uses centimeters as units for non-parametric coordinates.

mtllib SubwayColumn.mtl
g default
v -1.241845 -0.000000 1.241845
v 1.241845 -0.000000 1.241845
v -1.241845 32.000000 1.241845
v 1.241845 32.000000 1.241845
v -1.241845 32.000000 -1.241845
v 1.241845 32.000000 -1.241845
v -1.241845 -0.000000 -1.241845
v 1.241845 -0.000000 -1.241845
v 1.241845 1.528979 -0.996759
v 1.241845 1.528979 0.996759
v 1.241845 32.000000 -0.996759
v 1.241845 32.000000 0.996759
v -1.241845 1.528979 -0.996759
v -1.241845 1.528979 0.996759
v -1.241845 32.000000 0.996759
v -1.241845 32.000000 -0.996759
v 0.277475 2.312819 -0.996759
v 0.277475 2.312819 0.996759
v 0.277475 32.000000 -0.996759
v 0.277475 32.000000 0.996759
v -0.277475 2.312819 -0.996759
v -0.277475 2.312819 0.996759
v -0.277475 32.000000 0.996759
v -0.277475 32.000000 -0.996759
v -0.064050 28.221722 0.105976
v 0.264344 27.208061 0.105976
v 4.658058 32.002987 0.105976
v 6.278788 32.000000 0.105976
v 4.658058 32.002987 -0.105976
v 6.278788 32.000000 -0.105976
v -0.064050 28.221722 -0.105976
v 0.264344 27.208061 -0.105976
v 4.965826 32.000000 0.105976
v 4.965826 32.000000 -0.105976
v 0.063390 28.062574 -0.105976
v 0.063390 28.062574 0.105976
v -0.064050 28.221722 0.648782
v 0.063390 28.062574 0.648782
v 4.965826 32.000000 0.648782
v 4.658058 32.002987 0.648782
v 4.658058 32.002987 -0.648782
v 4.965826 32.000000 -0.648782
v 0.063390 28.062574 -0.648782
v -0.064050 28.221722 -0.648782
v 0.064050 28.221722 -0.105976
v -0.264344 27.208061 -0.105976
v -4.658058 32.002987 -0.105976
v -6.278788 32.000000 -0.105976
v -4.658058 32.002987 0.105976
v -6.278788 32.000000 0.105976
v 0.064050 28.221722 0.105976
v -0.264344 27.208061 0.105976
v -4.965826 32.000000 -0.105976
v -4.965826 32.000000 0.105976
v -0.063390 28.062574 0.105976
v -0.063390 28.062574 -0.105976
v 0.064050 28.221722 -0.648782
v -0.063390 28.062574 -0.648782
v -4.965826 32.000000 -0.648782
v -4.658058 32.002987 -0.648782
v -4.658058 32.002987 0.648782
v -4.965826 32.000000 0.648782
v -0.063390 28.062574 0.648782
v 0.064050 28.221722 0.648782
v 4.185831 31.857100 -0.849199
v 4.185831 32.142899 -0.849199
v 6.552011 31.857100 -0.849199
v 6.552011 32.142899 -0.849199
v 6.552011 31.857100 0.849199
v 6.552011 32.142899 0.849199
v 4.185831 31.857100 0.849199
v 4.185831 32.142899 0.849199
v -6.562632 31.857100 -0.849199
v -6.562632 32.142899 -0.849199
v -4.196451 31.857100 -0.849199
v -4.196451 32.142899 -0.849199
v -4.196451 31.857100 0.849199
v -4.196451 32.142899 0.849199
v -6.562632 31.857100 0.849199
v -6.562632 32.142899 0.849199
vt 0.461530 0.000000
vt 0.538800 0.000000
vt 0.538800 0.995554
vt 0.461530 0.995554
vt 0.461530 0.995554
vt 0.538800 0.995554
vt 0.538800 0.000000
vt 0.461530 0.000000
vt 0.508798 0.071954
vt 0.508798 0.071954
vt 0.508798 0.995554
vt 0.508798 0.995554
vt 0.491533 0.071954
vt 0.491533 0.071954
vt 0.491533 0.995554
vt 0.491533 0.995554
vt 0.538800 0.047568
vt 0.538800 0.047568
vt 0.538800 0.995554
vt 0.538800 0.995554
vt 0.461530 0.047568
vt 0.461530 0.047568
vt 0.461530 0.995554
vt 0.461530 0.995554
vt 0.498173 0.878008
vt 0.502137 0.873057
vt 0.654657 0.995554
vt 0.645082 0.995647
vt 0.645082 0.995647
vt 0.654657 0.995554
vt 0.654657 0.995554
vt 0.645082 0.995647
vt 0.645082 0.995647
vt 0.654657 0.995554
vt 0.502137 0.873057
vt 0.498173 0.878008
vt 0.498173 0.878008
vt 0.502137 0.873057
vt 0.502137 0.873057
vt 0.498173 0.878008
vt 0.508389 0.846472
vt 0.508389 0.846472
vt 0.695505 0.995554
vt 0.695505 0.995554
vt 0.502158 0.878008
vt 0.498193 0.873057
vt 0.345673 0.995554
vt 0.355248 0.995647
vt 0.355248 0.995647
vt 0.345673 0.995554
vt 0.345673 0.995554
vt 0.355248 0.995647
vt 0.355248 0.995647
vt 0.345673 0.995554
vt 0.498193 0.873057
vt 0.502158 0.878008
vt 0.502158 0.878008
vt 0.498193 0.873057
vt 0.498193 0.873057
vt 0.502158 0.878008
vt 0.491941 0.846472
vt 0.491941 0.846472
vt 0.304825 0.995554
vt 0.304825 0.995554
vt 0.630391 0.991108
vt 0.630391 1.000000
vt 0.704005 1.000000
vt 0.704005 0.991108
vt 0.704005 1.000000
vt 0.704005 0.991108
vt 0.630391 1.000000
vt 0.630391 0.991108
vt 0.295995 0.991108
vt 0.295995 1.000000
vt 0.369609 1.000000
vt 0.369609 0.991108
vt 0.369609 1.000000
vt 0.369609 0.991108
vt 0.295995 1.000000
vt 0.295995 0.991108
vn 0.000000 0.000000 1.000000
vn 0.000000 0.000000 1.000000
vn 0.000000 0.000000 1.000000
vn 0.000000 0.000000 1.000000
vn 0.000000 0.000000 -1.000000
vn 0.000000 0.000000 -1.000000
vn 0.000000 0.000000 -1.000000
vn 0.000000 0.000000 -1.000000
vn 1.000000 0.000000 0.000000
vn 1.000000 0.000000 0.000000
vn 1.000000 0.000000 0.000000
vn 1.000000 0.000000 0.000000
vn -1.000000 0.000000 0.000000
vn -1.000000 0.000000 0.000000
vn -1.000000 0.000000 0.000000
vn -1.000000 0.000000 0.000000
vn 1.000000 0.000000 0.000000
vn 1.000000 0.000000 0.000000
vn 1.000000 0.000000 0.000000
vn 1.000000 0.000000 0.000000
vn 1.000000 0.000000 0.000000
vn 1.000000 0.000000 0.000000
vn 1.000000 0.000000 0.000000
vn 1.000000 0.000000 0.000000
vn 0.000000 0.000000 0.000000
vn 0.000000 0.000000 0.000000
vn 0.000000 0.000000 0.000000
vn 0.000000 0.000000 0.000000
vn 1.000000 0.000000 0.000000
vn 1.000000 0.000000 0.000000
vn 1.000000 0.000000 0.000000
vn 1.000000 0.000000 0.000000
vn -1.000000 0.000000 0.000000
vn -1.000000 0.000000 0.000000
vn -1.000000 0.000000 0.000000
vn -1.000000 0.000000 0.000000
vn -1.000000 0.000000 0.000000
vn -1.000000 0.000000 0.000000
vn -1.000000 0.000000 0.000000
vn -1.000000 0.000000 0.000000
vn 0.000000 0.000000 0.000000
vn 0.000000 0.000000 0.000000
vn 0.000000 0.000000 0.000000
vn 0.000000 0.000000 0.000000
vn -1.000000 0.000000 0.000000
vn -1.000000 0.000000 0.000000
vn -1.000000 0.000000 0.000000
vn -1.000000 0.000000 0.000000
vn 0.630733 0.776000 0.000000
vn 0.630733 0.776000 0.000000
vn 0.630733 0.776000 0.000000
vn 0.630733 0.776000 0.000000
vn 0.000000 0.000000 1.000000
vn 0.000000 0.000000 1.000000
vn 0.000000 0.000000 1.000000
vn 0.000000 0.000000 1.000000
vn 0.000000 -1.000000 0.000000
vn 0.000000 -1.000000 0.000000
vn 0.000000 -1.000000 0.000000
vn 0.000000 -1.000000 0.000000
vn 0.000000 0.000000 -1.000000
vn 0.000000 0.000000 -1.000000
vn 0.000000 0.000000 -1.000000
vn 0.000000 0.000000 -1.000000
vn -0.630733 0.776000 0.000000
vn -0.630733 0.776000 0.000000
vn -0.630733 0.776000 0.000000
vn -0.630733 0.776000 0.000000
vn -0.000000 0.000000 -1.000000
vn -0.000000 0.000000 -1.000000
vn -0.000000 0.000000 -1.000000
vn -0.000000 0.000000 -1.000000
vn 0.000000 -1.000000 0.000000
vn 0.000000 -1.000000 0.000000
vn 0.000000 -1.000000 0.000000
vn 0.000000 -1.000000 0.000000
vn -0.000000 0.000000 1.000000
vn -0.000000 0.000000 1.000000
vn -0.000000 0.000000 1.000000
vn -0.000000 0.000000 1.000000
vn 0.000000 0.000000 1.000000
vn 0.000000 0.000000 1.000000
vn 0.000000 0.000000 1.000000
vn 0.000000 0.000000 1.000000
vn 0.009705 0.999953 0.000000
vn 0.001843 0.999998 0.000000
vn 0.001843 0.999998 0.000000
vn 0.009705 0.999953 0.000000
vn 0.000000 0.000000 -1.000000
vn 0.000000 0.000000 -1.000000
vn 0.000000 0.000000 -1.000000
vn 0.000000 0.000000 -1.000000
vn -0.780578 -0.625058 0.000000
vn -0.951322 -0.308198 0.000000
vn -0.951322 -0.308198 0.000000
vn -0.780578 -0.625058 0.000000
vn 0.623138 -0.782112 0.000000
vn 0.623138 -0.782112 0.000000
vn 0.623138 -0.782112 0.000000
vn 0.623138 -0.782112 0.000000
vn -0.625056 0.780580 0.000000
vn -0.625056 0.780580 0.000000
vn -0.625056 0.780580 0.000000
vn -0.625056 0.780580 0.000000
vn 0.000000 1.000000 0.000000
vn 0.000000 1.000000 0.000000
vn 0.000000 0.000000 -1.000000
vn 0.000000 0.000000 -1.000000
vn 0.000000 0.000000 -1.000000
vn 0.000000 0.000000 -1.000000
vn -0.973445 -0.228923 0.000000
vn -0.973445 -0.228923 0.000000
vn 0.000000 0.000000 1.000000
vn 0.000000 0.000000 1.000000
vn 0.000000 0.000000 1.000000
vn 0.000000 0.000000 1.000000
vn -0.780578 -0.625058 0.000000
vn -0.780578 -0.625058 0.000000
vn -0.780578 -0.625058 0.000000
vn -0.780578 -0.625058 0.000000
vn 0.626195 -0.779667 0.000000
vn 0.626195 -0.779667 0.000000
vn 0.626195 -0.779667 0.000000
vn 0.626195 -0.779667 0.000000
vn 0.009705 0.999953 0.000000
vn 0.009705 0.999953 0.000000
vn 0.009705 0.999953 0.000000
vn 0.009705 0.999953 0.000000
vn -0.625056 0.780580 0.000000
vn -0.625056 0.780580 0.000000
vn -0.625056 0.780580 0.000000
vn -0.625056 0.780580 0.000000
vn 0.009705 0.999953 0.000000
vn 0.009705 0.999953 0.000000
vn 0.009705 0.999953 0.000000
vn 0.009705 0.999953 0.000000
vn 0.626195 -0.779667 0.000000
vn 0.626195 -0.779667 0.000000
vn 0.626195 -0.779667 0.000000
vn 0.626195 -0.779667 0.000000
vn -0.780578 -0.625058 0.000000
vn -0.780578 -0.625058 0.000000
vn -0.780578 -0.625058 0.000000
vn -0.780578 -0.625058 0.000000
vn -0.625056 0.780580 0.000000
vn -0.625056 0.780580 0.000000
vn -0.625056 0.780580 0.000000
vn -0.625056 0.780580 0.000000
vn 0.000000 0.000000 -1.000000
vn 0.000000 0.000000 -1.000000
vn 0.000000 0.000000 -1.000000
vn 0.000000 0.000000 -1.000000
vn -0.009705 0.999953 0.000000
vn -0.001843 0.999998 0.000000
vn -0.001843 0.999998 0.000000
vn -0.009705 0.999953 0.000000
vn 0.000000 0.000000 1.000000
vn 0.000000 0.000000 1.000000
vn 0.000000 0.000000 1.000000
vn 0.000000 0.000000 1.000000
vn 0.780578 -0.625058 0.000000
vn 0.951322 -0.308198 0.000000
vn 0.951322 -0.308198 0.000000
vn 0.780578 -0.625058 0.000000
vn -0.623138 -0.782112 0.000000
vn -0.623138 -0.782112 0.000000
vn -0.623138 -0.782112 0.000000
vn -0.623138 -0.782112 0.000000
vn 0.625056 0.780580 0.000000
vn 0.625056 0.780580 0.000000
vn 0.625056 0.780580 0.000000
vn 0.625056 0.780580 0.000000
vn 0.000000 1.000000 0.000000
vn 0.000000 1.000000 0.000000
vn -0.000000 0.000000 1.000000
vn -0.000000 0.000000 1.000000
vn -0.000000 0.000000 1.000000
vn -0.000000 0.000000 1.000000
vn 0.973445 -0.228923 0.000000
vn 0.973445 -0.228923 0.000000
vn 0.000000 0.000000 -1.000000
vn 0.000000 0.000000 -1.000000
vn 0.000000 0.000000 -1.000000
vn 0.000000 0.000000 -1.000000
vn 0.780578 -0.625058 0.000000
vn 0.780578 -0.625058 0.000000
vn 0.780578 -0.625058 0.000000
vn 0.780578 -0.625058 0.000000
vn -0.626195 -0.779667 0.000000
vn -0.626195 -0.779667 0.000000
vn -0.626195 -0.779667 0.000000
vn -0.626195 -0.779667 0.000000
vn -0.009705 0.999953 0.000000
vn -0.009705 0.999953 0.000000
vn -0.009705 0.999953 0.000000
vn -0.009705 0.999953 0.000000
vn 0.625056 0.780580 0.000000
vn 0.625056 0.780580 0.000000
vn 0.625056 0.780580 0.000000
vn 0.625056 0.780580 0.000000
vn -0.009705 0.999953 0.000000
vn -0.009705 0.999953 0.000000
vn -0.009705 0.999953 0.000000
vn -0.009705 0.999953 0.000000
vn -0.626195 -0.779667 0.000000
vn -0.626195 -0.779667 0.000000
vn -0.626195 -0.779667 0.000000
vn -0.626195 -0.779667 0.000000
vn 0.780578 -0.625058 0.000000
vn 0.780578 -0.625058 0.000000
vn 0.780578 -0.625058 0.000000
vn 0.780578 -0.625058 0.000000
vn 0.625056 0.780580 0.000000
vn 0.625056 0.780580 0.000000
vn 0.625056 0.780580 0.000000
vn 0.625056 0.780580 0.000000
vn 0.000000 0.000000 -1.000000
vn 0.000000 0.000000 -1.000000
vn 0.000000 0.000000 -1.000000
vn 0.000000 0.000000 -1.000000
vn 1.000000 0.000000 0.000000
vn 1.000000 0.000000 0.000000
vn 1.000000 0.000000 0.000000
vn 1.000000 0.000000 0.000000
vn 0.000000 0.000000 1.000000
vn 0.000000 0.000000 1.000000
vn 0.000000 0.000000 1.000000
vn 0.000000 0.000000 1.000000
vn -1.000000 0.000000 0.000000
vn -1.000000 0.000000 0.000000
vn -1.000000 0.000000 0.000000
vn -1.000000 0.000000 0.000000
vn 0.000000 1.000000 0.000000
vn 0.000000 1.000000 0.000000
vn 0.000000 1.000000 0.000000
vn 0.000000 1.000000 0.000000
vn 0.000000 -1.000000 0.000000
vn 0.000000 -1.000000 0.000000
vn 0.000000 -1.000000 0.000000
vn 0.000000 -1.000000 0.000000
vn 0.000000 0.000000 -1.000000
vn 0.000000 0.000000 -1.000000
vn 0.000000 0.000000 -1.000000
vn 0.000000 0.000000 -1.000000
vn 1.000000 0.000000 0.000000
vn 1.000000 0.000000 0.000000
vn 1.000000 0.000000 0.000000
vn 1.000000 0.000000 0.000000
vn 0.000000 0.000000 1.000000
vn 0.000000 0.000000 1.000000
vn 0.000000 0.000000 1.000000
vn 0.000000 0.000000 1.000000
vn -1.000000 0.000000 0.000000
vn -1.000000 0.000000 0.000000
vn -1.000000 0.000000 0.000000
vn -1.000000 0.000000 0.000000
vn 0.000000 1.000000 0.000000
vn 0.000000 1.000000 0.000000
vn 0.000000 1.000000 0.000000
vn 0.000000 1.000000 0.000000
vn 0.000000 -1.000000 0.000000
vn 0.000000 -1.000000 0.000000
vn 0.000000 -1.000000 0.000000
vn 0.000000 -1.000000 0.000000
s off
g polySurface336
usemtl initialShadingGroup
f 1/1/1 2/2/2 4/3/3 3/4/4
f 5/5/5 6/6/6 8/7/7 7/8/8
f 18/9/9 17/10/10 19/11/11 20/12/12
f 21/13/13 22/14/14 23/15/15 24/16/16
f 2/2/17 8/7/18 9/17/19 10/18/20
f 8/7/21 6/6/22 11/19/23 9/17/24
f 6/6/25 4/3/26 12/20/27 11/19/28
f 4/3/29 2/2/30 10/18/31 12/20/32
f 7/8/33 1/1/34 14/21/35 13/22/36
f 1/1/37 3/4/38 15/23/39 14/21/40
f 3/4/41 5/5/42 16/24/43 15/23/44
f 5/5/45 7/8/46 13/22/47 16/24/48
f 10/18/49 9/17/50 17/10/51 18/9/52
f 9/17/53 11/19/54 19/11/55 17/10/56
f 11/19/57 12/20/58 20/12/59 19/11/60
f 12/20/61 10/18/62 18/9/63 20/12/64
f 13/22/65 14/21/66 22/14/67 21/13/68
f 14/21/69 15/23/70 23/15/71 22/14/72
f 15/23/73 16/24/74 24/16/75 23/15/76
f 16/24/77 13/22/78 21/13/79 24/16/80
f 37/25/81 38/26/82 39/27/83 40/28/84
s 1
f 27/29/85 33/30/86 34/31/87 29/32/88
s off
f 41/33/89 42/34/90 43/35/91 44/36/92
s 2
f 31/37/93 35/38/94 36/39/95 25/40/96
s off
f 26/41/97 32/42/98 30/43/99 28/44/100
f 31/37/101 25/40/102 27/29/103 29/32/104
s 1
f 33/30/86 28/44/105 30/43/106 34/31/87
s off
f 35/38/107 34/31/108 30/43/109 32/42/110
s 2
f 36/39/95 35/38/94 32/42/111 26/41/112
s off
f 33/30/113 36/39/114 26/41/115 28/44/116
f 25/40/117 36/39/118 38/26/119 37/25/120
f 36/39/121 33/30/122 39/27/123 38/26/124
f 33/30/125 27/29/126 40/28/127 39/27/128
f 27/29/129 25/40/130 37/25/131 40/28/132
f 29/32/133 34/31/134 42/34/135 41/33/136
f 34/31/137 35/38/138 43/35/139 42/34/140
f 35/38/141 31/37/142 44/36/143 43/35/144
f 31/37/145 29/32/146 41/33/147 44/36/148
f 57/45/149 58/46/150 59/47/151 60/48/152
s 3
f 47/49/153 53/50/154 54/51/155 49/52/156
s off
f 61/53/157 62/54/158 63/55/159 64/56/160
s 4
f 51/57/161 55/58/162 56/59/163 45/60/164
s off
f 46/61/165 52/62/166 50/63/167 48/64/168
f 51/57/169 45/60/170 47/49/171 49/52/172
s 3
f 53/50/154 48/64/173 50/63/174 54/51/155
s off
f 55/58/175 54/51/176 50/63/177 52/62/178
s 4
f 56/59/163 55/58/162 52/62/179 46/61/180
s off
f 53/50/181 56/59/182 46/61/183 48/64/184
f 45/60/185 56/59/186 58/46/187 57/45/188
f 56/59/189 53/50/190 59/47/191 58/46/192
f 53/50/193 47/49/194 60/48/195 59/47/196
f 47/49/197 45/60/198 57/45/199 60/48/200
f 49/52/201 54/51/202 62/54/203 61/53/204
f 54/51/205 55/58/206 63/55/207 62/54/208
f 55/58/209 51/57/210 64/56/211 63/55/212
f 51/57/213 49/52/214 61/53/215 64/56/216
f 65/65/217 66/66/218 68/67/219 67/68/220
f 67/68/221 68/67/222 70/69/223 69/70/224
f 69/70/225 70/69/226 72/71/227 71/72/228
f 71/72/229 72/71/230 66/66/231 65/65/232
f 66/66/233 72/71/234 70/69/235 68/67/236
f 71/72/237 65/65/238 67/68/239 69/70/240
f 73/73/241 74/74/242 76/75/243 75/76/244
f 75/76/245 76/75/246 78/77/247 77/78/248
f 77/78/249 78/77/250 80/79/251 79/80/252
f 79/80/253 80/79/254 74/74/255 73/73/256
f 74/74/257 80/79/258 78/77/259 76/75/260
f 79/80/261 73/73/262 75/76/263 77/78/264
