# This file uses centimeters as units for non-parametric coordinates.

mtllib Grass3.mtl
g default
v -0.073008 0.010632 0.054857
v -0.295448 3.865226 -0.842379
v -0.053914 -0.013404 -0.069156
v -0.474132 4.213894 -1.338088
v 0.073008 -0.010632 -0.054857
v -0.050986 3.838603 -1.014220
v -0.156719 3.691105 -0.618045
v -0.068722 3.605019 -0.741393
v 0.087744 3.664482 -0.789886
v -0.192276 3.766395 -0.942164
v -0.064410 3.161339 -0.419295
v 0.000948 3.117825 -0.566799
v 0.166381 3.136205 -0.581525
v -0.128986 2.229059 -0.261848
v -0.081120 2.200833 -0.407479
v 0.074576 2.199414 -0.414799
v -0.088106 1.174692 -0.158989
v -0.053914 1.148458 -0.294346
v 0.088106 1.149031 -0.291391
v 0.053037 0.000000 0.075096
v -0.651814 3.477190 0.671853
v -0.072458 0.000000 0.051174
v -1.930447 3.173357 0.954177
v -0.053037 0.000000 -0.075096
v -0.768432 3.582310 0.416217
v -0.371011 3.444851 0.530457
v -0.452290 3.414990 0.379225
v -0.487629 3.549971 0.274820
v -0.704899 3.448715 0.508330
v -0.032468 3.098461 0.223736
v -0.151275 3.086523 0.106839
v -0.142563 3.197702 -0.017604
v 0.073456 2.265674 0.105034
v -0.072458 2.255443 0.051174
v -0.074423 2.265674 -0.104351
v 0.064005 1.183483 0.090626
v -0.072458 1.183483 0.051174
v -0.064005 1.183483 -0.090626
v 0.038506 0.002742 0.053365
v -0.541843 2.426998 0.018776
v -0.032369 -0.012375 0.018663
v -0.872931 2.646286 0.033160
v 0.000000 -0.010632 -0.054857
v -0.599200 2.410255 -0.160191
v -0.381165 2.317489 -0.022474
v -0.438729 2.263347 -0.098418
v -0.438522 2.300746 -0.201441
v -0.582417 2.364841 -0.061863
v -0.244545 1.984305 -0.040649
v -0.320854 1.956938 -0.107528
v -0.298694 1.968498 -0.209607
v -0.162121 1.397970 0.027625
v -0.240583 1.380218 -0.028403
v -0.215802 1.379325 -0.123248
v -0.092708 0.734850 0.022356
v -0.167564 0.718351 -0.023535
v -0.139177 0.718711 -0.108245
v 0.074276 -0.003945 -0.018515
v 0.300464 2.182953 0.516477
v 0.036398 -0.003945 0.052345
v 0.230357 1.991864 1.337023
v -0.035771 -0.003945 0.017023
v 0.125136 2.249065 0.538586
v 0.268195 2.162614 0.321398
v 0.162170 2.143833 0.341854
v 0.092867 2.228726 0.343506
v 0.192343 2.165044 0.517704
v 0.147491 1.944760 0.060673
v 0.055047 1.937251 0.110094
v -0.018031 2.007175 0.081545
v 0.096076 1.420997 -0.025164
v 0.036398 1.414563 0.052345
v -0.057342 1.420997 0.024381
v 0.085655 0.740379 -0.022190
v 0.036398 0.740379 0.052345
v -0.047150 0.740379 0.020698
vt 0.000000 0.000000
vt 0.303457 0.000000
vt 0.303457 0.038462
vt 0.000000 0.038462
vt 0.000000 0.076923
vt 0.303457 0.076923
vt 0.926746 0.038462
vt 0.926746 0.000000
vt 1.000000 0.000000
vt 0.939676 0.038462
vt 1.000000 0.076923
vt 0.926746 0.076923
vt 1.000000 0.038462
vt 0.792848 0.000000
vt 0.792848 0.038462
vt 0.792848 0.076923
vt 0.578319 0.000000
vt 0.578319 0.038462
vt 0.578319 0.076923
vt 0.000000 0.000000
vt 0.303457 0.000000
vt 0.303457 0.038462
vt 0.000000 0.038462
vt 0.000000 0.076923
vt 0.303457 0.076923
vt 0.926746 0.038462
vt 0.926746 0.000000
vt 1.000000 0.000000
vt 0.939676 0.038462
vt 1.000000 0.076923
vt 0.926746 0.076923
vt 1.000000 0.038462
vt 0.792848 0.000000
vt 0.792848 0.038462
vt 0.792848 0.076923
vt 0.578319 0.000000
vt 0.578319 0.038462
vt 0.578319 0.076923
vt 0.000000 0.000000
vt 0.303457 0.000000
vt 0.303457 0.038462
vt 0.000000 0.038462
vt 0.000000 0.076923
vt 0.303457 0.076923
vt 0.926746 0.038462
vt 0.926746 0.000000
vt 1.000000 0.000000
vt 0.939676 0.038462
vt 1.000000 0.076923
vt 0.926746 0.076923
vt 1.000000 0.038462
vt 0.792848 0.000000
vt 0.792848 0.038462
vt 0.792848 0.076923
vt 0.578319 0.000000
vt 0.578319 0.038462
vt 0.578319 0.076923
vt 0.000000 0.000000
vt 0.303457 0.000000
vt 0.303457 0.038462
vt 0.000000 0.038462
vt 0.000000 0.076923
vt 0.303457 0.076923
vt 0.926746 0.038462
vt 0.926746 0.000000
vt 1.000000 0.000000
vt 0.939676 0.038462
vt 1.000000 0.076923
vt 0.926746 0.076923
vt 1.000000 0.038462
vt 0.792848 0.000000
vt 0.792848 0.038462
vt 0.792848 0.076923
vt 0.578319 0.000000
vt 0.578319 0.038462
vt 0.578319 0.076923
vn -0.980248 -0.042809 -0.193085
vn -0.971272 -0.051002 -0.232441
vn -0.596728 -0.132469 -0.791434
vn -0.607764 -0.157992 -0.778243
vn 0.065211 -0.195061 -0.978621
vn 0.025438 -0.154062 -0.987734
vn -0.523985 -0.535293 -0.662496
vn -0.853129 -0.454104 -0.256828
vn -0.737196 -0.671492 -0.075109
vn -0.382070 -0.825377 -0.415664
vn 0.074601 -0.759898 -0.645747
vn -0.025567 -0.544228 -0.838548
vn -0.424246 -0.735090 -0.528827
vn -0.761276 -0.626713 -0.166401
vn -0.442717 -0.734224 -0.514700
vn -0.032300 -0.673618 -0.738374
vn -0.923794 -0.101415 -0.369215
vn -0.572195 -0.197250 -0.796044
vn -0.073752 -0.249764 -0.965494
vn -0.948014 -0.022935 -0.317403
vn -0.618494 -0.097285 -0.779744
vn -0.036854 -0.139949 -0.989473
vn -0.235139 -0.005287 0.971947
vn -0.274983 -0.005134 0.961435
vn -0.816806 -0.006591 0.576875
vn -0.816803 -0.007024 0.576873
vn -0.994624 -0.005287 -0.103419
vn -0.998041 -0.005134 -0.062353
vn -0.583143 -0.809610 -0.066897
vn -0.271415 -0.896081 0.351245
vn -0.024085 -0.981077 0.192114
vn -0.251078 -0.930143 -0.267943
vn -0.411341 -0.632003 -0.656789
vn -0.666192 -0.540227 -0.514143
vn 0.058830 -0.913532 -0.402490
vn 0.248511 -0.964686 0.087313
vn 0.058830 -0.913532 -0.402490
vn -0.147234 -0.607959 -0.780198
vn -0.524452 -0.447632 0.724276
vn -0.894280 -0.358836 0.267394
vn -0.925986 -0.287829 -0.244345
vn -0.417273 -0.071442 0.905969
vn -0.848219 -0.063343 0.525844
vn -0.998534 -0.038243 -0.038314
vn -0.476382 -0.042809 0.878195
vn -0.511277 -0.051002 0.857901
vn -0.933284 -0.132469 0.333815
vn -0.923980 -0.157992 0.348280
vn -0.914743 -0.195061 -0.353832
vn -0.935292 -0.154062 -0.318581
vn -0.788529 -0.535293 0.302792
vn -0.499355 -0.454104 0.737857
vn -0.291348 -0.671492 0.681333
vn -0.510624 -0.825376 0.240867
vn -0.594190 -0.759898 -0.263614
vn -0.808079 -0.544228 -0.225442
vn -0.631214 -0.735089 0.247411
vn -0.385669 -0.626712 0.677121
vn -0.623232 -0.734224 0.269252
vn -0.714461 -0.673618 -0.189169
vn -0.627693 -0.101415 0.771827
vn -0.930375 -0.197250 0.309023
vn -0.943616 -0.249764 -0.217269
vn -0.585449 -0.022935 0.810385
vn -0.928611 -0.097285 0.358075
vn -0.955512 -0.139949 -0.259636
vn 0.857742 -0.005287 0.514053
vn 0.835836 -0.005134 0.548956
vn 0.307305 -0.006591 0.951588
vn 0.307304 -0.007024 0.951586
vn -0.395072 -0.005287 0.918635
vn -0.356890 -0.005134 0.934132
vn -0.237607 -0.809610 0.536725
vn 0.254424 -0.896080 0.363742
vn 0.176213 -0.981077 0.080232
vn -0.330583 -0.930143 0.159840
vn -0.749518 -0.632002 0.196967
vn -0.689285 -0.540227 0.482743
vn -0.366679 -0.913533 -0.176081
vn 0.157394 -0.964685 -0.211209
vn -0.366680 -0.913532 -0.176081
vn -0.788631 -0.607958 -0.091914
vn 0.535118 -0.447632 0.716432
vn -0.011203 -0.358836 0.933334
vn -0.509147 -0.287829 0.811125
vn 0.740493 -0.071442 0.668256
vn 0.249232 -0.063343 0.966370
vn -0.334089 -0.038243 0.941765
s 1
g polySurface22
usemtl initialShadingGroup
f 1/1/1 17/2/2 18/3/3 3/4/4
f 5/5/5 3/4/4 18/3/3 19/6/6
f 8/7/7 7/8/8 2/9/9 10/10/10
f 6/11/11 9/12/12 8/7/7 10/10/10
s 3
f 10/10/13 2/9/14 4/13/15
f 6/11/16 10/10/13 4/13/15
s 1
f 11/14/17 7/8/8 8/7/7 12/15/18
f 13/16/19 12/15/18 8/7/7 9/12/12
f 14/17/20 11/14/17 12/15/18 15/18/21
f 16/19/22 15/18/21 12/15/18 13/16/19
f 17/2/2 14/17/20 15/18/21 18/3/3
f 19/6/6 18/3/3 15/18/21 16/19/22
s 4
f 20/20/23 36/21/24 37/22/25 22/23/26
f 24/24/27 22/23/26 37/22/25 38/25/28
f 27/26/29 26/27/30 21/28/31 29/29/32
f 25/30/33 28/31/34 27/26/29 29/29/32
s 6
f 29/29/35 21/28/36 23/32/37
f 25/30/38 29/29/35 23/32/37
s 4
f 30/33/39 26/27/30 27/26/29 31/34/40
f 32/35/41 31/34/40 27/26/29 28/31/34
f 33/36/42 30/33/39 31/34/40 34/37/43
f 35/38/44 34/37/43 31/34/40 32/35/41
f 36/21/24 33/36/42 34/37/43 37/22/25
f 38/25/28 37/22/25 34/37/43 35/38/44
s 7
f 39/39/45 55/40/46 56/41/47 41/42/48
f 43/43/49 41/42/48 56/41/47 57/44/50
f 46/45/51 45/46/52 40/47/53 48/48/54
f 44/49/55 47/50/56 46/45/51 48/48/54
s 9
f 48/48/57 40/47/58 42/51/59
f 44/49/60 48/48/57 42/51/59
s 7
f 49/52/61 45/46/52 46/45/51 50/53/62
f 51/54/63 50/53/62 46/45/51 47/50/56
f 52/55/64 49/52/61 50/53/62 53/56/65
f 54/57/66 53/56/65 50/53/62 51/54/63
f 55/40/46 52/55/64 53/56/65 56/41/47
f 57/44/50 56/41/47 53/56/65 54/57/66
s 10
f 58/58/67 74/59/68 75/60/69 60/61/70
f 62/62/71 60/61/70 75/60/69 76/63/72
f 65/64/73 64/65/74 59/66/75 67/67/76
f 63/68/77 66/69/78 65/64/73 67/67/76
s 12
f 67/67/79 59/66/80 61/70/81
f 63/68/82 67/67/79 61/70/81
s 10
f 68/71/83 64/65/74 65/64/73 69/72/84
f 70/73/85 69/72/84 65/64/73 66/69/78
f 71/74/86 68/71/83 69/72/84 72/75/87
f 73/76/88 72/75/87 69/72/84 70/73/85
f 74/59/68 71/74/86 72/75/87 75/60/69
f 76/63/72 75/60/69 72/75/87 73/76/88
