# This file uses centimeters as units for non-parametric coordinates.

mtllib Grass1.mtl
g default
v 0.087329 0.000000 0.098488
v -1.122124 2.868012 0.156551
v -0.001169 -0.006092 0.006551
v -1.692493 1.660080 0.006551
v 0.087329 0.000000 -0.085386
v -1.122124 2.868012 -0.143449
v -0.886889 3.079088 0.156551
v -0.828769 3.012072 0.006551
v -0.886889 3.079088 -0.143449
v -1.044599 2.824898 0.006551
v -0.318662 3.154739 0.148162
v -0.309413 3.066515 0.006551
v -0.318662 3.154739 -0.135060
v -0.068867 2.260283 0.134721
v -0.156071 2.244025 0.006551
v -0.068867 2.260283 -0.121619
v 0.006048 1.180689 0.117501
v -0.082449 1.174597 0.006551
v 0.006048 1.180689 -0.104398
v 0.000000 0.000000 0.000000
v -0.118115 3.921083 -0.173151
v 0.059597 0.000000 -0.113003
v -0.332619 4.614280 -1.304693
v 0.174658 0.000000 -0.057485
v 0.166848 3.921083 -0.266940
v -0.060153 3.665123 0.002957
v 0.059597 3.614308 -0.113003
v 0.224809 3.665123 -0.090831
v 0.008434 3.848476 -0.268453
v -0.047184 3.092106 0.015529
v 0.059597 3.092106 -0.113003
v 0.221842 3.092106 -0.073014
v -0.034417 2.255443 0.011327
v 0.059597 2.255443 -0.113003
v 0.209074 2.255443 -0.068812
v -0.018059 1.183483 0.005944
v 0.059597 1.183483 -0.113003
v 0.192717 1.183483 -0.063428
v 0.082371 0.000678 -0.093857
v 0.834329 2.668060 -0.145942
v 0.149576 -0.008518 -0.033571
v 1.769625 2.855203 -0.101856
v 0.092287 -0.000679 0.036373
v 0.849696 2.662538 0.066534
v 0.649268 2.541358 -0.135851
v 0.693208 2.487213 -0.033571
v 0.664635 2.535836 0.076625
v 0.858538 2.604556 -0.042478
v 0.501388 2.161978 -0.129039
v 0.567767 2.138125 -0.033571
v 0.515895 2.156765 0.071554
v 0.301096 1.602429 -0.119519
v 0.366787 1.578823 -0.033571
v 0.314227 1.597711 0.062034
v 0.195322 0.833733 -0.107323
v 0.263552 0.824397 -0.033571
v 0.207288 0.832096 0.049838
vt 0.000000 0.000000
vt 1.000000 0.000000
vt 0.000000 0.038462
vt 1.000000 0.038462
vt 0.000000 0.076923
vt 1.000000 0.076923
vt 0.926746 0.000000
vt 0.926746 0.038462
vt 0.926746 0.076923
vt 0.939676 0.038462
vt 0.792848 0.000000
vt 0.792848 0.038462
vt 0.792848 0.076923
vt 0.578319 0.000000
vt 0.578319 0.038462
vt 0.578319 0.076923
vt 0.303457 0.000000
vt 0.303457 0.038462
vt 0.303457 0.076923
vt 0.000000 0.000000
vt 0.303457 0.000000
vt 0.303457 0.038462
vt 0.000000 0.038462
vt 0.000000 0.076923
vt 0.303457 0.076923
vt 0.926746 0.038462
vt 0.926746 0.000000
vt 1.000000 0.000000
vt 0.939676 0.038462
vt 1.000000 0.076923
vt 0.926746 0.076923
vt 1.000000 0.038462
vt 0.792848 0.000000
vt 0.792848 0.038462
vt 0.792848 0.076923
vt 0.578319 0.000000
vt 0.578319 0.038462
vt 0.578319 0.076923
vt 0.000000 0.000000
vt 0.303457 0.000000
vt 0.303457 0.038462
vt 0.000000 0.038462
vt 0.000000 0.076923
vt 0.303457 0.076923
vt 0.926746 0.038462
vt 0.926746 0.000000
vt 1.000000 0.000000
vt 0.939676 0.038462
vt 1.000000 0.076923
vt 0.926746 0.076923
vt 1.000000 0.038462
vt 0.792848 0.000000
vt 0.792848 0.038462
vt 0.792848 0.076923
vt 0.578319 0.000000
vt 0.578319 0.038462
vt 0.578319 0.076923
vn -0.750632 -0.056975 0.658260
vn -0.777061 -0.058640 0.626688
vn -0.997164 -0.075254 0.000001
vn -0.997132 -0.075684 0.000001
vn -0.750633 -0.056974 -0.658259
vn -0.777061 -0.058640 -0.626688
vn 0.308841 -0.951114 0.000000
vn 0.309478 -0.803976 0.507785
vn 0.573904 -0.650014 0.498112
vn 0.661857 -0.749630 -0.000000
vn 0.573905 -0.650014 -0.498111
vn 0.309478 -0.803977 -0.507784
vn 0.873909 -0.486089 0.000000
vn 0.752214 -0.418399 0.509034
vn 0.873909 -0.486089 0.000000
vn 0.752214 -0.418400 -0.509034
vn -0.468870 -0.706455 0.530171
vn -0.783351 -0.621580 0.000000
vn -0.468870 -0.706456 -0.530171
vn -0.861699 -0.132006 0.489949
vn -0.988871 -0.148776 0.000000
vn -0.861698 -0.132006 -0.489949
vn -0.860603 -0.005288 -0.509249
vn -0.839318 -0.005039 -0.543617
vn -0.312623 -0.006474 -0.949855
vn -0.312622 -0.007024 -0.949852
vn 0.389923 -0.005287 -0.920832
vn 0.352387 -0.005039 -0.935841
vn -0.305789 -0.207999 -0.929102
vn -0.742394 -0.223971 -0.631418
vn -0.693955 -0.503008 -0.515180
vn -0.254651 -0.580096 -0.773720
vn 0.252333 -0.503010 -0.826625
vn 0.222269 -0.223971 -0.948912
vn -0.179620 -0.818469 -0.545752
vn -0.638123 -0.704497 -0.310617
vn -0.179621 -0.818469 -0.545751
vn 0.328910 -0.704494 -0.628893
vn -0.764200 -0.009308 -0.644912
vn -0.312608 -0.010907 -0.949820
vn 0.231799 -0.009308 -0.972719
vn -0.801670 -0.004615 -0.597749
vn -0.312623 -0.005642 -0.949860
vn 0.289951 -0.004615 -0.957030
vn 0.692937 -0.100158 -0.714007
vn 0.722732 -0.104327 -0.683209
vn 0.986906 -0.141984 -0.076527
vn 0.986878 -0.142134 -0.076620
vn 0.792883 -0.113835 0.598647
vn 0.817535 -0.117266 0.563813
vn 0.847457 -0.525547 -0.074951
vn 0.668190 -0.478104 -0.570034
vn 0.456714 -0.698619 -0.550767
vn 0.568133 -0.820566 -0.062414
vn 0.528559 -0.724431 0.442522
vn 0.741429 -0.504416 0.442547
vn 0.262327 -0.963974 -0.044025
vn 0.189094 -0.816550 -0.545427
vn 0.262327 -0.963974 -0.044022
vn 0.262502 -0.842930 0.469640
vn 0.758018 -0.282279 -0.587986
vn 0.934574 -0.347420 -0.076622
vn 0.833633 -0.309448 0.457491
vn 0.749538 -0.187846 -0.634749
vn 0.969211 -0.232839 -0.080095
vn 0.835176 -0.207340 0.509403
s 1
g polySurface13
usemtl initialShadingGroup
f 1/1/1 17/17/2 18/18/3 3/3/4
f 5/5/5 3/3/4 18/18/3 19/19/6
f 8/8/7 7/7/8 2/2/9 10/10/10
f 6/6/11 9/9/12 8/8/7 10/10/10
s 3
f 10/10/13 2/2/14 4/4/15
f 6/6/16 10/10/13 4/4/15
s 1
f 11/11/17 7/7/8 8/8/7 12/12/18
f 13/13/19 12/12/18 8/8/7 9/9/12
f 14/14/20 11/11/17 12/12/18 15/15/21
f 16/16/22 15/15/21 12/12/18 13/13/19
f 17/17/2 14/14/20 15/15/21 18/18/3
f 19/19/6 18/18/3 15/15/21 16/16/22
s 4
f 20/20/23 36/21/24 37/22/25 22/23/26
f 24/24/27 22/23/26 37/22/25 38/25/28
f 27/26/29 26/27/30 21/28/31 29/29/32
f 25/30/33 28/31/34 27/26/29 29/29/32
s 6
f 29/29/35 21/28/36 23/32/37
f 25/30/38 29/29/35 23/32/37
s 4
f 30/33/39 26/27/30 27/26/29 31/34/40
f 32/35/41 31/34/40 27/26/29 28/31/34
f 33/36/42 30/33/39 31/34/40 34/37/43
f 35/38/44 34/37/43 31/34/40 32/35/41
f 36/21/24 33/36/42 34/37/43 37/22/25
f 38/25/28 37/22/25 34/37/43 35/38/44
s 7
f 39/39/45 55/40/46 56/41/47 41/42/48
f 43/43/49 41/42/48 56/41/47 57/44/50
f 46/45/51 45/46/52 40/47/53 48/48/54
f 44/49/55 47/50/56 46/45/51 48/48/54
s 9
f 48/48/57 40/47/58 42/51/59
f 44/49/60 48/48/57 42/51/59
s 7
f 49/52/61 45/46/52 46/45/51 50/53/62
f 51/54/63 50/53/62 46/45/51 47/50/56
f 52/55/64 49/52/61 50/53/62 53/56/65
f 54/57/66 53/56/65 50/53/62 51/54/63
f 55/40/46 52/55/64 53/56/65 56/41/47
f 57/44/50 56/41/47 53/56/65 54/57/66
