# This file uses centimeters as units for non-parametric coordinates.

g default
v 5.426636 4.041668 5.690019
v 5.713920 4.041668 6.891535
v 5.650093 47.906483 6.991590
v 6.422775 4.041668 5.480650
v 6.710052 4.041668 6.682142
v 5.713920 40.858898 6.891535
v 5.426636 40.858898 5.690019
v 6.422775 40.858898 5.480650
v 6.710052 40.858898 6.682142
v 5.572601 15.509426 6.817034
v 5.465782 15.718098 5.547510
v 6.564087 15.703442 5.555151
v 6.670906 15.494762 6.824678
v 5.303459 47.906483 6.133547
v 5.502899 47.906483 5.704088
v 5.426636 46.144588 5.690019
v 5.975441 47.906483 5.488912
v 6.589027 47.435276 5.445703
v 6.876304 47.435276 6.647219
v 6.437622 47.906483 6.632959
vt 0.963662 0.000000
vt 0.988235 0.000000
vt 0.986002 0.305119
vt 0.961167 0.310671
vt 0.967621 0.310281
vt 0.992456 0.304729
vt 0.989961 0.000000
vt 0.965388 0.000000
vt 0.964368 0.942689
vt 0.963662 0.895811
vt 0.971416 0.942689
vt 0.965676 0.930152
vt 0.990250 0.930152
vt 0.989961 0.755176
vt 0.965388 0.755176
vt 0.988235 0.755176
vt 0.987458 0.942689
vt 0.989777 0.942689
vt 0.963662 0.755176
vt 0.962976 0.942689
vn -0.987553 -0.002884 0.157261
vn -0.987553 -0.002884 0.157261
vn -0.987553 -0.002884 0.157261
vn -0.987553 -0.002884 0.157261
vn 0.987477 -0.002884 -0.157736
vn 0.987477 -0.002884 -0.157736
vn 0.987477 -0.002884 -0.157736
vn 0.987477 -0.002884 -0.157736
vn 0.000000 -1.000000 0.000000
vn 0.000000 -1.000000 0.000000
vn 0.000000 -1.000000 0.000000
vn 0.000000 -1.000000 0.000000
vn 0.095861 -0.002199 0.995392
vn 0.095861 -0.002199 0.995392
vn 0.095861 -0.002199 0.995392
vn 0.095861 -0.002199 0.995392
vn -0.095891 -0.002159 -0.995389
vn -0.095891 -0.002159 -0.995389
vn -0.095891 -0.002159 -0.995389
vn -0.095891 -0.002159 -0.995389
vn -0.906141 0.042578 -0.420827
vn -0.906141 0.042578 -0.420827
vn -0.906141 0.042578 -0.420827
vn 0.972261 -0.025814 -0.232470
vn 0.972261 -0.025814 -0.232470
vn 0.983951 -0.005750 -0.178348
vn 0.983937 -0.005779 -0.178424
vn 0.142587 0.002348 0.989779
vn 0.142939 0.002355 0.989729
vn 0.245021 0.004233 0.969509
vn 0.245021 0.004233 0.969509
vn 0.245021 0.004233 0.969509
vn -0.987491 0.001984 0.157663
vn -0.987491 0.001984 0.157663
vn -0.984343 -0.004772 0.176199
vn -0.984365 -0.004727 0.176077
vn -0.095867 0.001507 -0.995393
vn -0.095867 0.001507 -0.995393
vn -0.131040 -0.000472 -0.991377
vn -0.131193 -0.000481 -0.991357
vn 0.983937 -0.005779 -0.178424
vn 0.983951 -0.005750 -0.178348
vn 0.987543 0.001984 -0.157334
vn 0.987543 0.001984 -0.157334
vn 0.095888 0.001490 0.995391
vn 0.095888 0.001490 0.995391
vn 0.142939 0.002355 0.989729
vn 0.142587 0.002348 0.989779
vn -0.984365 -0.004727 0.176077
vn -0.984343 -0.004772 0.176199
vn -0.975105 -0.021103 0.220738
vn -0.975105 -0.021103 0.220738
vn -0.975105 -0.021103 0.220738
vn 0.000002 1.000000 -0.000001
vn 0.000002 1.000000 -0.000001
vn 0.000002 1.000000 -0.000001
vn 0.000002 1.000000 -0.000001
vn 0.000002 1.000000 -0.000001
vn -0.131193 -0.000481 -0.991357
vn -0.131040 -0.000472 -0.991377
vn -0.211574 -0.005039 -0.977349
vn -0.211574 -0.005039 -0.977349
vn -0.211574 -0.005039 -0.977349
vn -0.211574 -0.005039 -0.977349
vn 0.649460 0.731531 -0.207518
vn 0.649460 0.731531 -0.207518
vn 0.649460 0.731531 -0.207518
vn 0.649460 0.731531 -0.207518
s off
g Bustedwall:polySurface281 Bustedwall:polySurface280
f 1/1/1 2/2/2 10/3/3 11/4/4
f 12/5/5 13/6/6 5/7/7 4/8/8
f 4/8/9 5/7/10 2/2/11 1/1/12
f 2/2/13 5/7/14 13/6/15 10/3/16
f 4/8/17 1/1/18 11/4/19 12/5/20
f 15/9/21 16/10/22 14/11/23
f 18/12/24 19/13/25 9/14/26 8/15/27
f 6/16/28 9/14/29 19/13/30 20/17/31 3/18/32
f 11/4/33 10/3/34 6/16/35 7/19/36
f 12/5/37 11/4/38 7/19/39 8/15/40
f 8/15/41 9/14/42 13/6/43 12/5/44
f 10/3/45 13/6/46 9/14/47 6/16/48
f 7/19/49 6/16/50 3/18/51 14/11/52 16/10/53
f 15/9/54 14/11/55 3/18/56 20/17/57 17/20/58
f 8/15/59 7/19/60 16/10/61 15/9/62 17/20/63 18/12/64
f 18/12/65 17/20/66 20/17/67 19/13/68
