# This file uses centimeters as units for non-parametric coordinates.

g default
v 3.565289 63.838585 42.876937
v 12.367667 58.534446 42.876937
v 19.353250 51.637076 42.876937
v 23.838229 43.975027 42.876937
v 25.383706 34.163322 42.876937
v -37.768018 34.163322 42.876937
v -36.222600 43.975022 42.876937
v -31.737576 51.637067 42.876937
v -24.751994 58.534432 42.876937
v -15.949645 63.838567 42.876937
v -6.192186 67.920807 42.876937
v 3.565289 63.838585 -22.583953
v 12.367667 58.534446 -22.583953
v 19.353250 51.637076 -22.583953
v 23.838229 43.975027 -22.583953
v 25.383706 34.163322 -22.583953
v -37.768018 34.163322 -22.583953
v -36.222600 43.975022 -22.583953
v -31.737576 51.637067 -22.583953
v -24.751994 58.534432 -22.583953
v -15.949645 63.838567 -22.583953
v -6.192186 67.920807 -22.583953
v -6.192186 34.163322 -22.583953
v 25.383706 -0.000000 42.876937
v 25.383706 -0.000000 -22.583953
v -37.768018 0.000000 42.876937
v -37.768018 -0.000000 -22.583953
v -6.192186 0.000000 42.876937
v -6.192186 -0.000000 -22.583953
v 2.695864 61.176341 42.876937
v 10.713903 56.344817 42.876937
v 17.077064 50.062027 42.876937
v 21.162412 43.082692 42.876937
v 22.570183 34.145240 42.876937
v -34.954494 34.145240 42.876937
v -33.546784 43.082688 42.876937
v -29.461390 50.062018 42.876937
v -23.098230 56.344812 42.876937
v -15.080191 61.176323 42.876937
v -6.192186 64.894820 42.876937
v -6.192186 3.025984 42.876937
v 22.570183 3.025984 42.876937
v -34.954494 3.025984 42.876937
v 2.695864 61.176341 -14.993966
v 10.713903 56.344817 -14.993966
v -6.192186 34.145240 -14.993966
v 17.077064 50.062027 -14.993966
v 21.162412 43.082692 -14.993966
v 22.570183 34.145240 -14.993966
v -34.954494 34.145240 -14.993966
v -33.546784 43.082688 -14.993966
v -29.461390 50.062018 -14.993966
v -23.098230 56.344812 -14.993966
v -15.080191 61.176323 -14.993966
v -6.192186 64.894820 -14.993966
v -6.192186 3.025984 -14.993966
v 22.570183 3.025984 -14.993966
v -34.954494 3.025984 -14.993966
v 25.383706 -0.000000 38.075722
v 25.383706 34.163322 38.075722
v 23.838229 43.975027 38.075722
v 19.353250 51.637076 38.075722
v 12.367667 58.534446 38.075722
v 3.565289 63.838585 38.075722
v -6.192186 67.920807 38.075722
v -15.949645 63.838567 38.075722
v -24.751994 58.534432 38.075722
v -31.737576 51.637067 38.075722
v -36.222600 43.975022 38.075722
v -37.768018 34.163322 38.075722
v -37.768018 0.000000 38.075722
v 31.043309 43.228118 42.876937
v 37.499458 26.671393 42.876937
v 37.499458 26.671393 38.075722
v 31.043309 43.228118 38.075722
v 47.201307 13.068309 42.876937
v 47.201307 13.068309 38.075722
v 47.201307 -0.000000 42.876937
v 47.201307 -0.000000 38.075722
vt 0.648603 0.107966
vt 0.626409 0.064408
vt 0.591842 0.029841
vt 0.548284 0.007647
vt 0.500000 -0.000000
vt 0.500000 0.312500
vt 0.548284 0.304853
vt 0.591841 0.282659
vt 0.626409 0.248091
vt 0.648603 0.204534
vt 0.656250 0.156250
vt 0.375000 0.312500
vt 0.387500 0.312500
vt 0.400000 0.312500
vt 0.412500 0.312500
vt 0.425000 0.312500
vt 0.550000 0.312500
vt 0.562500 0.312500
vt 0.575000 0.312500
vt 0.587500 0.312500
vt 0.600000 0.312500
vt 0.612500 0.312500
vt 0.625000 0.312500
vt 0.375000 0.688440
vt 0.387500 0.688440
vt 0.400000 0.688440
vt 0.412500 0.688440
vt 0.425000 0.688440
vt 0.550000 0.688440
vt 0.562500 0.688440
vt 0.575000 0.688440
vt 0.587500 0.688440
vt 0.600000 0.688440
vt 0.612500 0.688440
vt 0.625000 0.688440
vt 0.648603 0.795466
vt 0.626409 0.751908
vt 0.591842 0.717341
vt 0.548284 0.695147
vt 0.500000 0.687500
vt 0.500000 1.000000
vt 0.548284 0.992353
vt 0.591841 0.970159
vt 0.626409 0.935591
vt 0.648603 0.892034
vt 0.656250 0.843750
vt 0.500000 0.150000
vt 0.500000 0.837500
vt 0.000000 0.000000
vt 1.000000 0.000000
vt 1.000000 1.000000
vt 0.000000 1.000000
vt 0.000000 0.000000
vt 1.000000 0.000000
vt 1.000000 1.000000
vt 0.000000 1.000000
vt 0.000000 0.000000
vt 1.000000 0.000000
vt 1.000000 1.000000
vt 0.000000 1.000000
vt 0.000000 0.000000
vt 1.000000 0.000000
vt 1.000000 1.000000
vt 0.000000 1.000000
vt 0.000000 0.000000
vt 1.000000 0.000000
vt 1.000000 1.000000
vt 0.000000 1.000000
vt 0.000000 0.000000
vt 1.000000 0.000000
vt 1.000000 1.000000
vt 0.000000 1.000000
vt 0.626409 0.064408
vt 0.648603 0.107966
vt 0.591842 0.029841
vt 0.548284 0.007647
vt 0.500000 -0.000000
vt 0.548284 0.304853
vt 0.500000 0.312500
vt 0.591841 0.282659
vt 0.626409 0.248091
vt 0.648603 0.204534
vt 0.656250 0.156250
vt 1.000000 1.000000
vt 0.000000 1.000000
vt 0.000000 0.000000
vt 1.000000 0.000000
vt 1.000000 1.000000
vt 0.000000 1.000000
vt 0.626409 0.064408
vt 0.648603 0.107966
vt 0.591842 0.029841
vt 0.548284 0.007647
vt 0.500000 -0.000000
vt 0.548284 0.304853
vt 0.500000 0.312500
vt 0.591841 0.282659
vt 0.626409 0.248091
vt 0.648603 0.204534
vt 0.656250 0.156250
vt 1.000000 1.000000
vt 0.000000 1.000000
vt 0.000000 0.000000
vt 1.000000 0.000000
vt 1.000000 1.000000
vt 0.000000 1.000000
vt 0.857153 1.000000
vt 0.425000 0.366202
vt 0.857153 0.000000
vt 0.412500 0.366202
vt 0.400000 0.366202
vt 0.387500 0.366202
vt 0.625000 0.366202
vt 0.375000 0.366202
vt 0.612500 0.366202
vt 0.600000 0.366202
vt 0.587500 0.366202
vt 0.575000 0.366202
vt 0.562500 0.366202
vt 0.142847 0.000000
vt 0.550000 0.366202
vt 0.142847 1.000000
vt 0.400000 0.312500
vt 0.412500 0.312500
vt 0.412500 0.366202
vt 0.400000 0.366202
vt 0.425000 0.312500
vt 0.425000 0.366202
vt 1.000000 0.000000
vt 1.000000 1.000000
vt 0.857153 1.000000
vt 0.857153 0.000000
vn 0.451303 0.892371 -0.000000
vn 0.611502 0.791243 -0.000000
vn 0.611502 0.791243 -0.000000
vn 0.451303 0.892371 -0.000000
vn 0.702600 0.711586 -0.000000
vn 0.782403 0.622773 -0.000000
vn 0.931673 0.363298 -0.000000
vn 0.881468 0.472243 -0.000000
vn 0.881468 0.472243 -0.000000
vn 0.931673 0.363298 -0.000000
vn 0.814148 0.580658 -0.000000
vn 0.814148 0.580658 -0.000000
vn -0.987822 0.155590 0.000000
vn -0.945289 0.326233 0.000000
vn -0.945289 0.326233 0.000000
vn -0.987822 0.155589 0.000000
vn -0.785503 0.618857 -0.000000
vn -0.785503 0.618858 -0.000000
vn -0.611502 0.791243 -0.000000
vn -0.611502 0.791243 -0.000000
vn -0.451304 0.892370 -0.000000
vn -0.451304 0.892370 -0.000000
vn -0.000001 1.000000 -0.000000
vn -0.000001 1.000000 -0.000000
vn 0.000000 0.000000 1.000000
vn 0.000000 0.000000 1.000000
vn -0.000000 0.000000 1.000000
vn 0.000000 0.000000 1.000000
vn 0.000000 0.000000 1.000000
vn 0.000000 0.000000 1.000000
vn 0.000000 0.000000 1.000000
vn 0.000000 0.000000 1.000000
vn -0.000000 0.000000 1.000000
vn -0.000000 0.000000 1.000000
vn 0.000000 0.000000 1.000000
vn 0.000000 0.000000 1.000000
vn 0.000001 -0.000000 -1.000000
vn -0.000000 -0.000000 -1.000000
vn 0.000000 -0.000000 -1.000000
vn -0.000000 -0.000000 -1.000000
vn -0.000000 -0.000000 -1.000000
vn -0.000000 -0.000000 -1.000000
vn -0.000000 -0.000000 -1.000000
vn -0.000000 -0.000000 -1.000000
vn -0.000000 -0.000000 -1.000000
vn -0.000000 -0.000000 -1.000000
vn -0.000000 -0.000000 -1.000000
vn 0.000000 -0.000000 -1.000000
vn 1.000000 -0.000000 -0.000000
vn 1.000000 -0.000000 -0.000000
vn 1.000000 -0.000000 -0.000000
vn 1.000000 -0.000000 -0.000000
vn -1.000000 0.000000 0.000000
vn -1.000000 0.000000 0.000000
vn -1.000000 0.000000 0.000000
vn -1.000000 0.000000 0.000000
vn 0.000000 0.000000 1.000000
vn 0.000000 0.000000 1.000000
vn 0.000000 0.000000 1.000000
vn 0.000000 0.000000 1.000000
vn 0.000000 0.000000 1.000000
vn 0.000000 0.000000 1.000000
vn 0.000000 0.000000 1.000000
vn 0.000000 0.000000 1.000000
vn -0.000000 -0.000000 -1.000000
vn -0.000000 -0.000000 -1.000000
vn -0.000000 -0.000000 -1.000000
vn -0.000000 -0.000000 -1.000000
vn -0.000000 -0.000000 -1.000000
vn -0.000000 -0.000000 -1.000000
vn -0.000000 -0.000000 -1.000000
vn -0.000000 -0.000000 -1.000000
vn -0.000000 0.000000 1.000000
vn -0.000000 0.000000 1.000000
vn -0.000000 0.000000 1.000000
vn -0.000000 0.000000 1.000000
vn 0.000000 0.000000 1.000000
vn 0.000000 0.000000 1.000000
vn 0.000000 0.000000 1.000000
vn 0.000000 0.000000 1.000000
vn -0.000000 0.000000 1.000000
vn -0.000000 0.000000 1.000000
vn -0.000000 0.000000 1.000000
vn -0.000000 0.000000 1.000000
vn -0.000000 0.000000 1.000000
vn -0.000000 0.000000 1.000000
vn -0.000000 0.000000 1.000000
vn -0.000000 0.000000 1.000000
vn -0.000000 0.000000 1.000000
vn -0.000000 0.000000 1.000000
vn -0.000000 0.000000 1.000000
vn -0.000000 0.000000 1.000000
vn 0.000000 0.000000 1.000000
vn 0.000000 0.000000 1.000000
vn 0.000000 0.000000 1.000000
vn 0.000000 0.000000 1.000000
vn 0.000000 0.000000 1.000000
vn 0.000000 0.000000 1.000000
vn 0.000000 0.000000 1.000000
vn 0.000000 0.000000 1.000000
vn 0.000000 0.000000 1.000000
vn 0.000000 0.000000 1.000000
vn 0.000000 0.000000 1.000000
vn 0.000000 0.000000 1.000000
vn -0.000000 0.000000 1.000000
vn -0.000000 0.000000 1.000000
vn -0.000000 0.000000 1.000000
vn -0.000000 0.000000 1.000000
vn 0.000000 0.000000 1.000000
vn 0.000000 0.000000 1.000000
vn 0.000000 0.000000 1.000000
vn 0.000000 0.000000 1.000000
vn 0.000000 0.000000 1.000000
vn 0.000000 0.000000 1.000000
vn 0.000000 0.000000 1.000000
vn 0.000000 0.000000 1.000000
vn 0.000000 0.000000 1.000000
vn 0.000000 0.000000 1.000000
vn 0.000000 0.000000 1.000000
vn 0.000000 0.000000 1.000000
vn -0.000000 0.000000 1.000000
vn -0.000000 0.000000 1.000000
vn -0.000000 0.000000 1.000000
vn -0.000000 0.000000 1.000000
vn 0.000000 0.000000 1.000000
vn 0.000000 0.000000 1.000000
vn 0.000000 0.000000 1.000000
vn 0.000000 0.000000 1.000000
vn -0.516121 -0.856516 0.000000
vn -0.516121 -0.856516 0.000000
vn -0.516121 -0.856516 0.000000
vn -0.516121 -0.856516 0.000000
vn -0.702599 -0.711586 0.000000
vn -0.702599 -0.711586 0.000000
vn -0.702599 -0.711586 0.000000
vn -0.702599 -0.711586 0.000000
vn -0.863021 -0.505169 0.000000
vn -0.863021 -0.505169 0.000000
vn -0.863021 -0.505169 0.000000
vn -0.863021 -0.505169 0.000000
vn -0.987821 -0.155595 0.000000
vn -0.987821 -0.155595 0.000000
vn -0.987821 -0.155595 0.000000
vn -0.987821 -0.155595 0.000000
vn 0.987822 -0.155589 -0.000000
vn 0.987822 -0.155589 -0.000000
vn 0.987822 -0.155589 -0.000000
vn 0.987822 -0.155589 -0.000000
vn 0.863018 -0.505173 0.000000
vn 0.863018 -0.505173 0.000000
vn 0.863018 -0.505173 0.000000
vn 0.863018 -0.505173 0.000000
vn 0.702599 -0.711586 0.000000
vn 0.702599 -0.711586 0.000000
vn 0.702599 -0.711586 0.000000
vn 0.702599 -0.711586 0.000000
vn 0.516120 -0.856516 0.000000
vn 0.516120 -0.856516 0.000000
vn 0.516120 -0.856516 0.000000
vn 0.516120 -0.856516 0.000000
vn 0.385956 -0.922517 0.000000
vn 0.385956 -0.922517 0.000000
vn 0.385956 -0.922517 0.000000
vn 0.385956 -0.922517 0.000000
vn -0.385953 -0.922519 0.000000
vn -0.385953 -0.922519 0.000000
vn -0.385953 -0.922519 0.000000
vn -0.385953 -0.922519 0.000000
vn 0.000000 1.000000 -0.000000
vn 0.000000 1.000000 -0.000000
vn 0.000000 1.000000 -0.000000
vn 0.000000 1.000000 -0.000000
vn -1.000000 0.000000 0.000000
vn -1.000000 0.000000 0.000000
vn -1.000000 0.000000 0.000000
vn -1.000000 0.000000 0.000000
vn 1.000000 -0.000000 -0.000000
vn 1.000000 -0.000000 -0.000000
vn 1.000000 -0.000000 -0.000000
vn 1.000000 -0.000000 -0.000000
vn 0.000000 1.000000 -0.000000
vn 0.000000 1.000000 -0.000000
vn 0.000000 1.000000 -0.000000
vn 0.000000 1.000000 -0.000000
vn 1.000000 -0.000000 -0.000000
vn 1.000000 -0.000000 -0.000000
vn 1.000000 -0.000000 -0.000000
vn 1.000000 -0.000000 -0.000000
vn 0.945289 0.326234 -0.000000
vn 0.987821 0.155595 -0.000000
vn 0.987821 0.155595 -0.000000
vn 0.945289 0.326234 -0.000000
vn 0.785505 0.618856 -0.000000
vn 0.611502 0.791243 -0.000000
vn 0.451303 0.892371 -0.000000
vn -0.000001 1.000000 -0.000000
vn -0.451304 0.892370 -0.000000
vn -0.611502 0.791243 -0.000000
vn -0.785503 0.618858 -0.000000
vn -0.945289 0.326233 0.000000
vn -0.987822 0.155589 0.000000
vn -1.000000 0.000000 0.000000
vn -1.000000 0.000000 0.000000
vn -0.000000 0.000000 1.000000
vn -0.000000 0.000000 1.000000
vn -0.000000 0.000000 1.000000
vn -0.000000 0.000000 1.000000
vn -0.000000 -0.000000 -1.000000
vn -0.000000 -0.000000 -1.000000
vn -0.000000 -0.000000 -1.000000
vn -0.000000 -0.000000 -1.000000
vn 0.583944 0.811794 -0.000000
vn 0.583944 0.811794 -0.000000
vn 0.583944 0.811794 -0.000000
vn 0.583944 0.811794 -0.000000
vn 0.000000 0.000000 1.000000
vn 0.000000 0.000000 1.000000
vn 0.000000 0.000000 1.000000
vn 0.000000 0.000000 1.000000
vn -0.000000 -0.000000 -1.000000
vn -0.000000 -0.000000 -1.000000
vn -0.000000 -0.000000 -1.000000
vn -0.000000 -0.000000 -1.000000
vn 0.000000 0.000000 1.000000
vn 0.000000 0.000000 1.000000
vn 0.000000 0.000000 1.000000
vn 0.000000 0.000000 1.000000
vn -0.000000 -1.000000 0.000000
vn -0.000000 -1.000000 0.000000
vn -0.000000 -1.000000 0.000000
vn -0.000000 -1.000000 0.000000
vn 0.000000 -0.000000 -1.000000
vn 0.000000 -0.000000 -1.000000
vn 0.000000 -0.000000 -1.000000
vn 0.000000 -0.000000 -1.000000
s 1
g Bustedwall:pCylinder3
f 1/12/1 2/13/2 63/112/3 64/114/4
f 2/13/2 3/14/5 62/111/6 63/112/3
s 2
f 72/123/7 73/124/8 74/125/9 75/126/10
f 73/124/8 76/127/11 77/128/12 74/125/9
s 1
f 6/17/13 7/18/14 69/119/15 70/121/16
f 7/18/14 8/19/17 68/118/18 69/119/15
f 8/19/17 9/20/19 67/117/20 68/118/18
f 9/20/19 10/21/21 66/116/22 67/117/20
f 10/21/21 11/22/23 65/115/24 66/116/22
f 11/22/23 1/23/1 64/113/4 65/115/24
s 4
f 45/90/25 44/91/26 46/47/27
f 47/92/28 45/90/25 46/47/27
f 48/93/29 47/92/28 46/47/27
f 49/94/30 48/93/29 46/47/27
f 51/95/31 50/96/32 46/47/27
f 52/97/33 51/95/31 46/47/27
f 53/98/34 52/97/33 46/47/27
f 54/99/35 53/98/34 46/47/27
f 55/100/36 54/99/35 46/47/27
f 44/91/26 55/100/36 46/47/27
s 6
f 12/45/37 13/44/38 23/48/39
f 13/44/38 14/43/40 23/48/39
f 14/43/40 15/42/41 23/48/39
f 15/42/41 16/41/42 23/48/39
f 17/40/43 18/39/44 23/48/39
f 18/39/44 19/38/45 23/48/39
f 19/38/45 20/37/46 23/48/39
f 20/37/46 21/36/47 23/48/39
f 21/36/47 22/46/48 23/48/39
f 22/46/48 12/45/37 23/48/39
s off
f 77/132/49 76/129/50 78/130/51 79/131/52
s 8
f 6/53/53 70/120/54 71/122/55 26/56/56
s off
f 49/103/57 46/58/58 56/101/59 57/102/60
f 46/61/61 50/104/62 58/105/63 56/106/64
f 23/65/65 16/66/66 25/67/67 29/68/68
f 17/69/69 23/70/70 29/71/71 27/72/72
f 2/2/73 1/1/74 30/74/75 31/73/76
f 3/3/77 2/2/78 31/73/79 32/75/80
f 4/4/81 3/3/82 32/75/83 33/76/84
f 5/5/85 4/4/86 33/76/87 34/77/88
f 7/7/89 6/6/90 35/79/91 36/78/92
f 8/8/93 7/7/94 36/78/95 37/80/96
f 9/9/97 8/8/98 37/80/99 38/81/100
f 10/10/101 9/9/102 38/81/103 39/82/104
f 11/11/105 10/10/106 39/82/107 40/83/108
f 1/1/109 11/11/110 40/83/111 30/74/112
f 28/59/113 24/60/114 42/85/115 41/84/116
f 24/60/117 5/57/118 34/86/119 42/85/120
f 6/62/121 26/63/122 43/88/123 35/87/124
f 26/63/125 28/64/126 41/89/127 43/88/128
f 31/73/129 30/74/130 44/91/131 45/90/132
f 32/75/133 31/73/134 45/90/135 47/92/136
f 33/76/137 32/75/138 47/92/139 48/93/140
f 34/77/141 33/76/142 48/93/143 49/94/144
f 36/78/145 35/79/146 50/96/147 51/95/148
f 37/80/149 36/78/150 51/95/151 52/97/152
f 38/81/153 37/80/154 52/97/155 53/98/156
f 39/82/157 38/81/158 53/98/159 54/99/160
f 40/83/161 39/82/162 54/99/163 55/100/164
f 30/74/165 40/83/166 55/100/167 44/91/168
f 41/84/169 42/85/170 57/102/171 56/101/172
f 42/85/173 34/86/174 49/103/175 57/102/176
f 35/87/177 43/88/178 58/105/179 50/104/180
f 43/88/181 41/89/182 56/106/183 58/105/184
f 16/49/185 60/109/186 59/107/187 25/52/188
s 1
f 61/110/189 60/108/190 16/28/191 15/27/192
f 62/111/6 61/110/189 15/27/192 14/26/193
f 63/112/3 62/111/6 14/26/193 13/25/194
f 64/114/4 63/112/3 13/25/194 12/24/195
f 65/115/24 64/113/4 12/35/195 22/34/196
f 66/116/22 65/115/24 22/34/196 21/33/197
f 67/117/20 66/116/22 21/33/197 20/32/198
f 68/118/18 67/117/20 20/32/198 19/31/199
f 69/119/15 68/118/18 19/31/199 18/30/200
f 70/121/16 69/119/15 18/30/200 17/29/201
s 8
f 71/122/55 70/120/54 17/54/202 27/55/203
s off
f 3/14/204 4/15/205 73/124/206 72/123/207
f 61/110/208 62/111/209 75/126/210 74/125/211
f 62/111/212 3/14/213 72/123/214 75/126/215
f 4/15/216 5/16/217 76/127/218 73/124/219
f 60/108/220 61/110/221 74/125/222 77/128/223
f 5/50/224 24/51/225 78/130/226 76/129/227
f 24/51/228 59/107/229 79/131/230 78/130/231
f 59/107/232 60/109/233 77/132/234 79/131/235
