# This file uses centimeters as units for non-parametric coordinates.

mtllib Books_01.mtl
g default
v -1.366267 -0.007267 1.855589
v 1.517476 -0.007267 1.855589
v -1.366267 0.679034 1.855589
v 1.517476 0.679034 1.855589
v -1.366267 0.679034 -2.410677
v 1.517476 0.679034 -2.410677
v -1.366267 -0.007267 -2.410677
v 1.517476 -0.007267 -2.410677
v -1.265788 0.126288 1.855589
v 1.517812 0.126288 1.855589
v 1.517812 0.545479 1.855589
v -1.265788 0.545479 1.855589
v -1.265788 0.545479 -2.410677
v 1.517812 0.545479 -2.410677
v 1.517812 0.126288 -2.410677
v -1.265788 0.126288 -2.410677
v -1.264559 0.129211 1.764273
v 1.423936 0.129211 1.764273
v 1.423936 0.542557 1.764273
v -1.264559 0.542557 1.764273
v -1.264559 0.542557 -2.319361
v 1.423936 0.542557 -2.319361
v 1.423936 0.129211 -2.319361
v -1.264559 0.129211 -2.319361
v -0.678126 0.679199 2.849385
v 2.080510 0.679199 2.009207
v -0.678126 1.365500 2.849385
v 2.080510 1.365500 2.009207
v -1.921102 1.365500 -1.231796
v 0.837534 1.365500 -2.071974
v -1.921102 0.679199 -1.231796
v 0.837534 0.679199 -2.071974
v -0.582006 0.812754 2.820110
v 2.080832 0.812754 2.009109
v 2.080832 1.231945 2.009109
v -0.582006 1.231945 2.820110
v -1.824982 1.231945 -1.261070
v 0.837856 1.231945 -2.072072
v 0.837856 0.812754 -2.072072
v -1.824982 0.812754 -1.261070
v -0.607436 0.815677 2.732398
v 1.964423 0.815677 1.949105
v 1.964423 1.229023 1.949105
v -0.607436 1.229023 2.732398
v -1.797202 1.229023 -1.174074
v 0.774657 1.229023 -1.957367
v 0.774657 0.815677 -1.957367
v -1.797202 0.815677 -1.174074
v -2.501985 1.366555 0.197946
v -1.024058 1.366555 2.674174
v -2.501985 2.052856 0.197946
v -1.024058 2.052856 2.674174
v 1.161396 2.052856 -1.988528
v 2.639323 2.052856 0.487700
v 1.161396 1.366555 -1.988528
v 2.639323 1.366555 0.487700
v -2.450489 1.500110 0.284226
v -1.023886 1.500110 2.674463
v -1.023886 1.919301 2.674463
v -2.450489 1.919301 0.284226
v 1.212892 1.919301 -1.902248
v 2.639495 1.919301 0.487989
v 2.639495 1.500110 0.487989
v 1.212892 1.500110 -1.902248
v -2.371448 1.503032 0.238481
v -0.993585 1.503032 2.547053
v -0.993585 1.916378 2.547053
v -2.371448 1.916378 0.238481
v 1.135109 1.916378 -1.854393
v 2.512971 1.916378 0.454179
v 2.512971 1.503032 0.454179
v 1.135109 1.503032 -1.854393
v -1.066535 -0.000364 -3.751685
v -3.573184 -0.000364 -2.325962
v -1.272912 0.544394 -4.114529
v -3.779562 0.544394 -2.688807
v 0.401319 3.139270 -1.170961
v -2.105330 3.139270 0.254761
v 0.607696 2.594512 -0.808117
v -1.898953 2.594512 0.617606
v -1.194036 0.105646 -3.772618
v -3.613637 0.105646 -2.396406
v -3.739692 0.438383 -2.618031
v -1.320091 0.438383 -3.994242
v 0.354140 3.033260 -1.050674
v -2.065461 3.033260 0.325537
v -1.939406 2.700523 0.547161
v 0.480195 2.700523 -0.829050
v -1.160147 0.163507 -3.710551
v -3.497080 0.163507 -2.381359
v -3.621377 0.491605 -2.599893
v -1.284444 0.491605 -3.929085
v 0.318116 2.975399 -1.111527
v -2.018818 2.975399 0.217665
v -1.894521 2.647301 0.436199
v 0.442413 2.647301 -0.892992
vt 0.050852 0.021404
vt 0.486309 0.021404
vt 0.486309 0.021404
vt 0.050852 0.021404
vt 0.034378 -0.000000
vt 0.501460 -0.000000
vt 0.501460 1.000000
vt 0.034378 1.000000
vt 0.050852 0.978596
vt 0.486309 0.978596
vt 0.486309 0.978596
vt 0.050852 0.978596
vt 0.034378 1.000000
vt 0.501460 1.000000
vt 0.501460 -0.000000
vt 0.034378 -0.000000
vt 0.501514 -0.000000
vt 0.050653 -0.000000
vt 0.050653 -0.000000
vt 0.501514 -0.000000
vt 0.501514 1.000000
vt 0.050653 1.000000
vt 0.050653 1.000000
vt 0.501514 1.000000
vt 0.601620 0.000000
vt 0.914054 0.000000
vt 0.914054 1.000000
vt 0.601620 1.000000
vt 0.601620 1.000000
vt 0.914054 1.000000
vt 0.914054 0.000000
vt 0.601620 0.000000
vt 0.601620 0.000000
vt 0.914054 0.000000
vt 0.914054 1.000000
vt 0.601620 1.000000
vt 0.034378 -0.000000
vt 0.501460 -0.000000
vt 0.501460 1.000000
vt 0.034378 1.000000
vt 0.601620 1.000000
vt 0.914054 1.000000
vt 0.914054 0.000000
vt 0.601620 0.000000
vt 0.034378 1.000000
vt 0.501460 1.000000
vt 0.501460 -0.000000
vt 0.034378 -0.000000
vt 0.501514 -0.000000
vt 0.050653 -0.000000
vt 0.050653 -0.000000
vt 0.501514 -0.000000
vt 0.501514 1.000000
vt 0.050653 1.000000
vt 0.050653 1.000000
vt 0.501514 1.000000
vt 0.486309 0.021404
vt 0.050852 0.021404
vt 0.050852 0.021404
vt 0.486309 0.021404
vt 0.486309 0.978596
vt 0.050852 0.978596
vt 0.050852 0.978596
vt 0.486309 0.978596
vt 0.601620 0.000000
vt 0.914054 0.000000
vt 0.914054 1.000000
vt 0.601620 1.000000
vt 0.034378 -0.000000
vt 0.501460 -0.000000
vt 0.501460 1.000000
vt 0.034378 1.000000
vt 0.601620 1.000000
vt 0.914054 1.000000
vt 0.914054 0.000000
vt 0.601620 0.000000
vt 0.034378 1.000000
vt 0.501460 1.000000
vt 0.501460 -0.000000
vt 0.034378 -0.000000
vt 0.501514 -0.000000
vt 0.050653 -0.000000
vt 0.050653 -0.000000
vt 0.501514 -0.000000
vt 0.501514 1.000000
vt 0.050653 1.000000
vt 0.050653 1.000000
vt 0.501514 1.000000
vt 0.486309 0.021404
vt 0.050852 0.021404
vt 0.050852 0.021404
vt 0.486309 0.021404
vt 0.486309 0.978596
vt 0.050852 0.978596
vt 0.050852 0.978596
vt 0.486309 0.978596
vt 0.601620 0.000000
vt 0.914054 0.000000
vt 0.914054 1.000000
vt 0.601620 1.000000
vt 0.034378 -0.000000
vt 0.501460 -0.000000
vt 0.501460 1.000000
vt 0.034378 1.000000
vt 0.601620 1.000000
vt 0.914054 1.000000
vt 0.914054 0.000000
vt 0.601620 0.000000
vt 0.034378 1.000000
vt 0.501460 1.000000
vt 0.501460 -0.000000
vt 0.034378 -0.000000
vt 0.501514 -0.000000
vt 0.050653 -0.000000
vt 0.050653 -0.000000
vt 0.501514 -0.000000
vt 0.501514 1.000000
vt 0.050653 1.000000
vt 0.050653 1.000000
vt 0.501514 1.000000
vt 0.486309 0.021404
vt 0.050852 0.021404
vt 0.050852 0.021404
vt 0.486309 0.021404
vt 0.486309 0.978596
vt 0.050852 0.978596
vt 0.050852 0.978596
vt 0.486309 0.978596
vn 0.000000 0.000000 1.000000
vn 0.000000 0.000000 1.000000
vn 0.000000 0.000000 1.000000
vn 0.000000 0.000000 1.000000
vn 0.000000 1.000000 0.000000
vn 0.000000 1.000000 0.000000
vn 0.000000 1.000000 0.000000
vn 0.000000 1.000000 0.000000
vn 0.000000 0.000000 -1.000000
vn 0.000000 0.000000 -1.000000
vn 0.000000 0.000000 -1.000000
vn 0.000000 0.000000 -1.000000
vn 0.000000 -1.000000 0.000000
vn 0.000000 -1.000000 0.000000
vn 0.000000 -1.000000 0.000000
vn 0.000000 -1.000000 0.000000
vn 1.000000 0.000000 0.000000
vn 1.000000 0.000000 0.000000
vn 1.000000 0.000000 0.000000
vn 1.000000 0.000000 0.000000
vn -1.000000 0.000000 0.000000
vn -1.000000 0.000000 0.000000
vn -1.000000 0.000000 0.000000
vn -1.000000 0.000000 0.000000
vn 0.000000 0.000000 1.000000
vn 0.000000 0.000000 1.000000
vn 0.000000 0.000000 1.000000
vn 0.000000 0.000000 1.000000
vn 0.000000 0.000000 1.000000
vn 0.000000 0.000000 1.000000
vn 0.000000 0.000000 1.000000
vn 0.000000 0.000000 1.000000
vn -0.000001 0.000000 1.000000
vn -0.000001 0.000000 1.000000
vn -0.000001 0.000000 1.000000
vn -0.000001 0.000000 1.000000
vn 0.000000 0.000000 -1.000000
vn 0.000000 0.000000 -1.000000
vn 0.000000 0.000000 -1.000000
vn 0.000000 0.000000 -1.000000
vn 0.000000 0.000000 -1.000000
vn 0.000000 0.000000 -1.000000
vn 0.000000 0.000000 -1.000000
vn 0.000000 0.000000 -1.000000
vn -0.000003 0.000000 -1.000000
vn -0.000003 0.000000 -1.000000
vn -0.000003 0.000000 -1.000000
vn -0.000003 0.000000 -1.000000
vn 0.999997 -0.002513 0.000000
vn 0.999997 -0.002513 0.000000
vn 0.999997 -0.002513 0.000000
vn 0.999997 -0.002513 0.000000
vn 0.999997 0.002513 0.000000
vn 0.999997 0.002513 0.000000
vn 0.999997 0.002513 0.000000
vn 0.999997 0.002513 0.000000
vn -0.000000 0.999488 0.031987
vn -0.000000 0.999488 0.031987
vn -0.000000 0.999488 0.031987
vn -0.000000 0.999488 0.031987
vn 0.000000 -0.999488 0.031987
vn 0.000000 -0.999488 0.031987
vn 0.000000 -0.999488 0.031987
vn 0.000000 -0.999488 0.031987
vn 0.999910 0.000000 0.013450
vn 0.999910 0.000000 0.013450
vn 0.999910 0.000000 0.013450
vn 0.999910 0.000000 0.013450
vn 0.000000 -0.999488 -0.031987
vn 0.000000 -0.999488 -0.031987
vn 0.000000 -0.999488 -0.031987
vn 0.000000 -0.999488 -0.031987
vn -0.000000 0.999488 -0.031987
vn -0.000000 0.999488 -0.031987
vn -0.000000 0.999488 -0.031987
vn -0.000000 0.999488 -0.031987
vn 0.999910 0.000000 -0.013450
vn 0.999910 0.000000 -0.013450
vn 0.999910 0.000000 -0.013450
vn 0.999910 0.000000 -0.013450
vn 0.031116 0.999516 0.000000
vn 0.031116 0.999516 0.000000
vn 0.031116 0.999516 0.000000
vn 0.031116 0.999516 0.000000
vn 0.031116 -0.999516 0.000000
vn 0.031116 -0.999516 0.000000
vn 0.031116 -0.999516 0.000000
vn 0.031116 -0.999516 0.000000
vn 0.291350 0.000000 0.956617
vn 0.291350 0.000000 0.956617
vn 0.291350 0.000000 0.956617
vn 0.291350 0.000000 0.956617
vn 0.000000 1.000000 0.000000
vn 0.000000 1.000000 0.000000
vn 0.000000 1.000000 0.000000
vn 0.000000 1.000000 0.000000
vn -0.291350 0.000000 -0.956617
vn -0.291350 0.000000 -0.956617
vn -0.291350 0.000000 -0.956617
vn -0.291350 0.000000 -0.956617
vn 0.000000 -1.000000 -0.000000
vn 0.000000 -1.000000 -0.000000
vn 0.000000 -1.000000 -0.000000
vn 0.000000 -1.000000 -0.000000
vn 0.956617 0.000000 -0.291350
vn 0.956617 0.000000 -0.291350
vn 0.956617 0.000000 -0.291350
vn 0.956617 0.000000 -0.291350
vn -0.956617 0.000000 0.291350
vn -0.956617 0.000000 0.291350
vn -0.956617 0.000000 0.291350
vn -0.956617 0.000000 0.291350
vn 0.291350 0.000001 0.956617
vn 0.291350 0.000001 0.956617
vn 0.291350 0.000001 0.956617
vn 0.291350 0.000001 0.956617
vn 0.291350 -0.000000 0.956617
vn 0.291350 -0.000000 0.956617
vn 0.291350 -0.000000 0.956617
vn 0.291350 -0.000000 0.956617
vn 0.291349 0.000000 0.956617
vn 0.291349 0.000000 0.956617
vn 0.291349 0.000000 0.956617
vn 0.291349 0.000000 0.956617
vn -0.291350 -0.000000 -0.956617
vn -0.291350 -0.000000 -0.956617
vn -0.291350 -0.000000 -0.956617
vn -0.291350 -0.000000 -0.956617
vn -0.291350 0.000000 -0.956617
vn -0.291350 0.000000 -0.956617
vn -0.291350 0.000000 -0.956617
vn -0.291350 0.000000 -0.956617
vn -0.291350 0.000000 -0.956616
vn -0.291350 0.000000 -0.956617
vn -0.291350 0.000000 -0.956616
vn -0.291350 0.000000 -0.956616
vn 0.956614 -0.002514 -0.291349
vn 0.956614 -0.002514 -0.291349
vn 0.956614 -0.002514 -0.291349
vn 0.956614 -0.002514 -0.291349
vn 0.956614 0.002514 -0.291349
vn 0.956614 0.002514 -0.291349
vn 0.956614 0.002514 -0.291349
vn 0.956614 0.002514 -0.291349
vn 0.009319 0.999488 0.030599
vn 0.009319 0.999488 0.030599
vn 0.009319 0.999488 0.030599
vn 0.009319 0.999488 0.030599
vn 0.009319 -0.999488 0.030599
vn 0.009319 -0.999488 0.030599
vn 0.009319 -0.999488 0.030599
vn 0.009319 -0.999488 0.030599
vn 0.960449 0.000000 -0.278456
vn 0.960449 0.000000 -0.278456
vn 0.960449 0.000000 -0.278456
vn 0.960449 0.000000 -0.278456
vn -0.009319 -0.999488 -0.030598
vn -0.009319 -0.999488 -0.030598
vn -0.009319 -0.999488 -0.030598
vn -0.009319 -0.999488 -0.030598
vn -0.009319 0.999488 -0.030598
vn -0.009319 0.999488 -0.030598
vn -0.009319 0.999488 -0.030598
vn -0.009319 0.999488 -0.030598
vn 0.952611 0.000000 -0.304190
vn 0.952611 0.000000 -0.304190
vn 0.952611 0.000000 -0.304190
vn 0.952611 0.000000 -0.304190
vn 0.029766 0.999516 -0.009065
vn 0.029766 0.999516 -0.009065
vn 0.029766 0.999516 -0.009065
vn 0.029766 0.999516 -0.009065
vn 0.029766 -0.999516 -0.009066
vn 0.029766 -0.999516 -0.009066
vn 0.029766 -0.999516 -0.009066
vn 0.029766 -0.999516 -0.009066
vn -0.858685 0.000000 0.512503
vn -0.858685 0.000000 0.512503
vn -0.858685 0.000000 0.512503
vn -0.858685 0.000000 0.512503
vn 0.000000 1.000000 0.000000
vn 0.000000 1.000000 0.000000
vn 0.000000 1.000000 0.000000
vn 0.000000 1.000000 0.000000
vn 0.858685 0.000000 -0.512503
vn 0.858685 0.000000 -0.512503
vn 0.858685 0.000000 -0.512503
vn 0.858685 0.000000 -0.512503
vn 0.000000 -1.000000 0.000000
vn 0.000000 -1.000000 0.000000
vn 0.000000 -1.000000 0.000000
vn 0.000000 -1.000000 0.000000
vn 0.512503 0.000000 0.858685
vn 0.512503 0.000000 0.858685
vn 0.512503 0.000000 0.858685
vn 0.512503 0.000000 0.858685
vn -0.512503 0.000000 -0.858686
vn -0.512503 0.000000 -0.858686
vn -0.512503 0.000000 -0.858686
vn -0.512503 0.000000 -0.858686
vn -0.858685 0.000000 0.512503
vn -0.858685 0.000000 0.512503
vn -0.858685 0.000000 0.512503
vn -0.858685 0.000000 0.512503
vn -0.858685 0.000000 0.512503
vn -0.858685 0.000000 0.512503
vn -0.858685 0.000000 0.512503
vn -0.858685 0.000000 0.512503
vn -0.858686 0.000000 0.512502
vn -0.858686 0.000000 0.512503
vn -0.858686 0.000000 0.512503
vn -0.858686 0.000000 0.512503
vn 0.858685 -0.000000 -0.512503
vn 0.858685 -0.000000 -0.512503
vn 0.858685 -0.000000 -0.512503
vn 0.858685 -0.000000 -0.512503
vn 0.858685 -0.000001 -0.512503
vn 0.858685 -0.000001 -0.512503
vn 0.858685 -0.000001 -0.512503
vn 0.858685 -0.000001 -0.512503
vn 0.858686 0.000000 -0.512502
vn 0.858686 0.000000 -0.512502
vn 0.858686 0.000000 -0.512502
vn 0.858686 0.000000 -0.512502
vn 0.512501 -0.002513 0.858683
vn 0.512501 -0.002513 0.858683
vn 0.512501 -0.002513 0.858683
vn 0.512501 -0.002513 0.858683
vn 0.512501 0.002513 0.858683
vn 0.512501 0.002513 0.858683
vn 0.512501 0.002513 0.858683
vn 0.512501 0.002513 0.858683
vn -0.027467 0.999488 0.016394
vn -0.027467 0.999488 0.016394
vn -0.027467 0.999488 0.016394
vn -0.027467 0.999488 0.016394
vn -0.027467 -0.999488 0.016393
vn -0.027467 -0.999488 0.016393
vn -0.027467 -0.999488 0.016393
vn -0.027467 -0.999488 0.016393
vn 0.500907 0.000000 0.865501
vn 0.500907 0.000000 0.865501
vn 0.500907 0.000000 0.865501
vn 0.500907 0.000000 0.865501
vn 0.027467 -0.999488 -0.016394
vn 0.027467 -0.999488 -0.016394
vn 0.027467 -0.999488 -0.016394
vn 0.027467 -0.999488 -0.016394
vn 0.027467 0.999488 -0.016394
vn 0.027467 0.999488 -0.016394
vn 0.027467 0.999488 -0.016394
vn 0.027467 0.999488 -0.016394
vn 0.524006 0.000000 0.851715
vn 0.524006 0.000000 0.851715
vn 0.524006 0.000000 0.851715
vn 0.524006 0.000000 0.851715
vn 0.015947 0.999516 0.026718
vn 0.015947 0.999516 0.026718
vn 0.015947 0.999516 0.026718
vn 0.015947 0.999516 0.026718
vn 0.015947 -0.999516 0.026719
vn 0.015947 -0.999516 0.026719
vn 0.015947 -0.999516 0.026719
vn 0.015947 -0.999516 0.026719
vn -0.392435 -0.608231 -0.689964
vn -0.392435 -0.608231 -0.689964
vn -0.392435 -0.608231 -0.689964
vn -0.392435 -0.608231 -0.689964
vn -0.300709 0.793760 -0.528696
vn -0.300709 0.793760 -0.528696
vn -0.300709 0.793760 -0.528696
vn -0.300709 0.793760 -0.528696
vn 0.392435 0.608232 0.689963
vn 0.392435 0.608232 0.689963
vn 0.392435 0.608232 0.689963
vn 0.392435 0.608232 0.689963
vn 0.300710 -0.793760 0.528696
vn 0.300710 -0.793760 0.528696
vn 0.300710 -0.793760 0.528696
vn 0.300710 -0.793760 0.528696
vn -0.869235 -0.000000 0.494400
vn -0.869235 -0.000000 0.494400
vn -0.869235 -0.000000 0.494400
vn -0.869235 -0.000000 0.494400
vn 0.869235 -0.000000 -0.494400
vn 0.869235 -0.000000 -0.494400
vn 0.869235 -0.000000 -0.494400
vn 0.869235 -0.000000 -0.494400
vn -0.392435 -0.608232 -0.689963
vn -0.392435 -0.608232 -0.689963
vn -0.392435 -0.608232 -0.689963
vn -0.392435 -0.608232 -0.689963
vn -0.392435 -0.608231 -0.689964
vn -0.392435 -0.608231 -0.689964
vn -0.392435 -0.608231 -0.689964
vn -0.392435 -0.608231 -0.689964
vn -0.392433 -0.608231 -0.689964
vn -0.392433 -0.608231 -0.689964
vn -0.392433 -0.608232 -0.689964
vn -0.392433 -0.608232 -0.689965
vn 0.392435 0.608231 0.689964
vn 0.392435 0.608231 0.689964
vn 0.392435 0.608231 0.689964
vn 0.392435 0.608231 0.689964
vn 0.392435 0.608231 0.689964
vn 0.392435 0.608231 0.689964
vn 0.392435 0.608231 0.689964
vn 0.392435 0.608231 0.689964
vn 0.392435 0.608231 0.689963
vn 0.392435 0.608231 0.689963
vn 0.392435 0.608231 0.689964
vn 0.392435 0.608231 0.689963
vn -0.868476 -0.001995 0.495727
vn -0.868476 -0.001995 0.495727
vn -0.868476 -0.001995 0.495727
vn -0.868476 -0.001995 0.495727
vn -0.869988 0.001994 0.493070
vn -0.869988 0.001994 0.493070
vn -0.869988 0.001994 0.493070
vn -0.869988 0.001994 0.493070
vn -0.313109 0.773898 -0.550495
vn -0.313109 0.773898 -0.550495
vn -0.313109 0.773898 -0.550495
vn -0.313109 0.773898 -0.550495
vn 0.288002 -0.812810 0.506355
vn 0.288002 -0.812810 0.506355
vn 0.288002 -0.812810 0.506355
vn 0.288002 -0.812810 0.506355
vn -0.874434 -0.008181 0.485076
vn -0.874434 -0.008181 0.485076
vn -0.874434 -0.008181 0.485076
vn -0.874434 -0.008181 0.485076
vn 0.313108 -0.773899 0.550494
vn 0.313108 -0.773899 0.550494
vn 0.313108 -0.773899 0.550494
vn 0.313108 -0.773899 0.550494
vn -0.288003 0.812810 -0.506353
vn -0.288003 0.812810 -0.506353
vn -0.288003 0.812810 -0.506353
vn -0.288003 0.812810 -0.506353
vn -0.863877 0.008181 0.503636
vn -0.863877 0.008181 0.503636
vn -0.863877 0.008181 0.503636
vn -0.863877 0.008181 0.503636
vn -0.327611 0.793375 -0.513057
vn -0.327611 0.793375 -0.513057
vn -0.327611 0.793375 -0.513057
vn -0.327611 0.793375 -0.513057
vn 0.273517 -0.793374 0.543825
vn 0.273517 -0.793374 0.543825
vn 0.273517 -0.793375 0.543825
vn 0.273517 -0.793374 0.543825
s off
g polySurface77
usemtl lambert4SG
f 17/25/1 18/26/2 19/27/3 20/28/4
f 3/5/5 4/6/6 6/7/7 5/8/8
f 21/29/9 22/30/10 23/31/11 24/32/12
f 7/13/13 8/14/14 2/15/15 1/16/16
f 18/26/17 23/31/18 22/30/19 19/27/20
f 7/13/21 1/16/22 3/5/23 5/8/24
f 1/16/25 2/15/26 10/17/27 9/18/28
f 4/6/29 3/5/30 12/19/31 11/20/32
f 3/5/33 1/16/34 9/18/35 12/19/36
f 5/8/37 6/7/38 14/21/39 13/22/40
f 8/14/41 7/13/42 16/23/43 15/24/44
f 7/13/45 5/8/46 13/22/47 16/23/48
f 2/15/49 8/14/50 15/24/51 10/17/52
f 6/7/53 4/6/54 11/20/55 14/21/56
f 9/18/57 10/17/58 18/2/59 17/1/60
f 11/20/61 12/19/62 20/4/63 19/3/64
f 12/19/65 9/18/66 17/1/67 20/4/68
f 13/22/69 14/21/70 22/10/71 21/9/72
f 15/24/73 16/23/74 24/12/75 23/11/76
f 16/23/77 13/22/78 21/9/79 24/12/80
f 10/17/81 15/24/82 23/11/83 18/2/84
f 14/21/85 11/20/86 19/3/87 22/10/88
f 41/33/89 42/34/90 43/35/91 44/36/92
f 27/37/93 28/38/94 30/39/95 29/40/96
f 45/41/97 46/42/98 47/43/99 48/44/100
f 31/45/101 32/46/102 26/47/103 25/48/104
f 42/34/105 47/43/106 46/42/107 43/35/108
f 31/45/109 25/48/110 27/37/111 29/40/112
f 25/48/113 26/47/114 34/49/115 33/50/116
f 28/38/117 27/37/118 36/51/119 35/52/120
f 27/37/121 25/48/122 33/50/123 36/51/124
f 29/40/125 30/39/126 38/53/127 37/54/128
f 32/46/129 31/45/130 40/55/131 39/56/132
f 31/45/133 29/40/134 37/54/135 40/55/136
f 26/47/137 32/46/138 39/56/139 34/49/140
f 30/39/141 28/38/142 35/52/143 38/53/144
f 33/50/145 34/49/146 42/57/147 41/58/148
f 35/52/149 36/51/150 44/59/151 43/60/152
f 36/51/153 33/50/154 41/58/155 44/59/156
f 37/54/157 38/53/158 46/61/159 45/62/160
f 39/56/161 40/55/162 48/63/163 47/64/164
f 40/55/165 37/54/166 45/62/167 48/63/168
f 34/49/169 39/56/170 47/64/171 42/57/172
f 38/53/173 35/52/174 43/60/175 46/61/176
f 65/65/177 66/66/178 67/67/179 68/68/180
f 51/69/181 52/70/182 54/71/183 53/72/184
f 69/73/185 70/74/186 71/75/187 72/76/188
f 55/77/189 56/78/190 50/79/191 49/80/192
f 66/66/193 71/75/194 70/74/195 67/67/196
f 55/77/197 49/80/198 51/69/199 53/72/200
f 49/80/201 50/79/202 58/81/203 57/82/204
f 52/70/205 51/69/206 60/83/207 59/84/208
f 51/69/209 49/80/210 57/82/211 60/83/212
f 53/72/213 54/71/214 62/85/215 61/86/216
f 56/78/217 55/77/218 64/87/219 63/88/220
f 55/77/221 53/72/222 61/86/223 64/87/224
f 50/79/225 56/78/226 63/88/227 58/81/228
f 54/71/229 52/70/230 59/84/231 62/85/232
f 57/82/233 58/81/234 66/89/235 65/90/236
f 59/84/237 60/83/238 68/91/239 67/92/240
f 60/83/241 57/82/242 65/90/243 68/91/244
f 61/86/245 62/85/246 70/93/247 69/94/248
f 63/88/249 64/87/250 72/95/251 71/96/252
f 64/87/253 61/86/254 69/94/255 72/95/256
f 58/81/257 63/88/258 71/96/259 66/89/260
f 62/85/261 59/84/262 67/92/263 70/93/264
f 89/97/265 90/98/266 91/99/267 92/100/268
f 75/101/269 76/102/270 78/103/271 77/104/272
f 93/105/273 94/106/274 95/107/275 96/108/276
f 79/109/277 80/110/278 74/111/279 73/112/280
f 90/98/281 95/107/282 94/106/283 91/99/284
f 79/109/285 73/112/286 75/101/287 77/104/288
f 73/112/289 74/111/290 82/113/291 81/114/292
f 76/102/293 75/101/294 84/115/295 83/116/296
f 75/101/297 73/112/298 81/114/299 84/115/300
f 77/104/301 78/103/302 86/117/303 85/118/304
f 80/110/305 79/109/306 88/119/307 87/120/308
f 79/109/309 77/104/310 85/118/311 88/119/312
f 74/111/313 80/110/314 87/120/315 82/113/316
f 78/103/317 76/102/318 83/116/319 86/117/320
f 81/114/321 82/113/322 90/121/323 89/122/324
f 83/116/325 84/115/326 92/123/327 91/124/328
f 84/115/329 81/114/330 89/122/331 92/123/332
f 85/118/333 86/117/334 94/125/335 93/126/336
f 87/120/337 88/119/338 96/127/339 95/128/340
f 88/119/341 85/118/342 93/126/343 96/127/344
f 82/113/345 87/120/346 95/128/347 90/121/348
f 86/117/349 83/116/350 91/124/351 94/125/352
